<svg xmlns="http://www.w3.org/2000/svg" version="1.1" xmlns:xlink="http://www.w3.org/1999/xlink" xmlns:svgjs="http://svgjs.com/svgjs" id="BgenPttrnSvgRootPreview" width="100%" height="100%"><defs><pattern x="0" y="0" width="1" height="1" patternUnits="userSpaceOnUse" id="BgenPttrnLayer1"><g id="PatternRootContent1"><g id="BgenPttrnLayer1background"><rect width="1" height="1" id="BgenPttrnBackground1" class="color_1 fill_color_1" fill="#b0b0b0"></rect></g></g></pattern><pattern x="0" y="0" width="90" height="120" patternUnits="userSpaceOnUse" id="BgenPttrnLayer2" patternTransform="matrix(0.7,0,0,0.7,0,0)"><g id="PatternRootContent2"><g id="BgenPttrnLayer2Element2"><use xlink:href="#BgenPttrnElement2" x="41.27164077758789" y="-76.34342575073242" transform="translate(90, -30) scale(1) translate(-90, 30) rotate(0, 90, -30)"></use><use xlink:href="#BgenPttrnElement2" x="-48.72835922241211" y="-76.34342575073242" transform="translate(0, -30) scale(1) translate(0, 30) rotate(0, 0, -30)"></use><use xlink:href="#BgenPttrnElement2" x="-3.7283592224121094" y="-16.343425750732422" transform="translate(45, 30) scale(1) translate(-45, -30) rotate(0, 45, 30)"></use><use xlink:href="#BgenPttrnElement2" x="-93.72835922241211" y="-16.343425750732422" transform="translate(-45, 30) scale(1) translate(45, -30) rotate(0, -45, 30)"></use><use xlink:href="#BgenPttrnElement2" x="86.27164077758789" y="-16.343425750732422" transform="translate(135, 30) scale(1) translate(-135, -30) rotate(0, 135, 30)"></use><use xlink:href="#BgenPttrnElement2" x="41.27164077758789" y="43.65657424926758" transform="translate(90, 90) scale(1) translate(-90, -90) rotate(0, 90, 90)"></use><use xlink:href="#BgenPttrnElement2" x="-48.72835922241211" y="43.65657424926758" transform="translate(0, 90) scale(1) translate(0, -90) rotate(0, 0, 90)"></use><use xlink:href="#BgenPttrnElement2" x="-3.7283592224121094" y="103.65657424926758" transform="translate(45, 150) scale(1) translate(-45, -150) rotate(0, 45, 150)"></use><use xlink:href="#BgenPttrnElement2" x="-3.7283592224121094" y="103.65657424926758" transform="translate(45, 150) scale(1) translate(-45, -150) rotate(0, 45, 150)"></use></g></g></pattern><symbol id="BgenPttrnElement2"><g class="color_3 fill_color_3" fill="#695858"><path d="M57.541,11.761003494262695L57.489,11.812004089355469L57.39,11.713004112243652L45.677,0.000003814697265625L34.152,0.000003814697265625L47.443,13.293004035949707L51.626,17.476003646850586L51.726,17.576004028320312L47.594,21.709003448486328L34.302,35.000003814697266L45.829,35.000003814697266L57.541,23.287004470825195L63.304,17.524003982543945Z" transform="matrix(1,0,0,1,0,0)"></path><path d="M84.49,44.146724700927734L84.426,44.11302947998047L84.489,43.98828125L92.01,29.229040145874023L88.448,18.26811408996582L79.913,35.0163688659668L77.227,40.28725814819336L77.163,40.413265228271484L71.956,37.76066589355469L55.208,29.226367950439453L58.77,40.1891975402832L73.529,47.70845413208008L80.79,51.40852737426758Z" transform="matrix(1,0,0,1,0,0)"></path><path d="M62.018,79.78459167480469L62.03,79.7127685546875L62.168,79.73467254638672L78.529,82.32595825195312L87.853,75.5517349243164L69.287,72.60972595214844L63.444,71.68431091308594L63.304,71.66218566894531L64.218,65.8897933959961L67.159,47.32430648803711L57.833,54.099708557128906L55.243,70.4598617553711L53.968,78.50963592529297Z" transform="matrix(1,0,0,1,0,0)"></path><path d="M21.179,69.4242935180664L21.251,69.41360473632812L21.273,69.55188751220703L23.865,85.91262817382812L33.189,92.68685150146484L30.249,74.1203384399414L29.324,68.27751159667969L29.302,68.13783264160156L35.074,67.22289276123047L53.64,64.28308868408203L44.314,57.5076904296875L27.954,60.09956359863281L19.904,61.3745231628418Z" transform="matrix(1,0,0,1,0,0)"></path><path d="M18.413,27.38340187072754L18.445,27.448617935180664L18.321,27.512178421020508L3.561,35.03239059448242L0,45.993316650390625L16.75,37.46058654785156L22.02,34.774932861328125L22.146,34.710731506347656L24.8,39.91766357421875L33.333,56.66625213623047L36.895,45.70342254638672L29.375,30.945133209228516L25.675,23.68332862854004Z" transform="matrix(1,0,0,1,0,0)"></path></g></symbol></defs><rect width="100%" height="100%" id="BgenPttrnRctLayer1" fill="url(#BgenPttrnLayer1)"></rect><rect width="100%" height="100%" id="BgenPttrnRctLayer2" fill="url(#BgenPttrnLayer2)"></rect></svg>