<svg xmlns="http://www.w3.org/2000/svg" version="1.1" xmlns:xlink="http://www.w3.org/1999/xlink" xmlns:svgjs="http://svgjs.com/svgjs" id="svg-pattern-517" width="100%" height="100%"><defs><pattern x="0" y="0" width="55" height="55" patternUnits="userSpaceOnUse" id="pattern-517-layer-1"><g id="PatternRootContent1" transform="scale(0.4296875) rotate(0)"><rect class="fill0" width="128" height="128" fill="#edefef"></rect>
<g class="fill1" fill="#3082c8">
	<polygon points="112.54,90.677 112.541,90.677 112.541,90.677 	"></polygon>
	<path d="M112.541,90.677c-0.074,0.302-0.1,0.629-0.079,0.978c0.072,1.32,0.774,2.373,1.734,3.021h0.001v-0.001
		c0.223-1.137-0.026-2.376-0.91-3.363C113.056,91.051,112.805,90.839,112.541,90.677z M112.881,91.499
		c0.454,0.556,0.716,1.214,0.779,1.883C113.233,92.864,112.952,92.212,112.881,91.499z"></path>
	<path d="M128,97.347c-3.184,3.906-3.48,9.535-0.238,12.543c-1.17-1.536-1.809-3.432-1.49-5.392
		c0.259-1.62,0.871-3.06,1.728-4.293c0,0,0,0,0,0.001V97.347L128,97.347z"></path>
	<path d="M128,115.961c-0.458-0.28-0.9-0.595-1.318-0.952c-5.3-4.533-5.626-12.276-3.006-18.323
		c1.075-2.483,2.552-4.711,4.324-6.651v0.001v-2.721v-0.001c-3.835,3.611-6.187,8.053-7.486,12.751
		c-1.826,6.613,1.036,15.218,7.486,18.381l0,0V115.961L128,115.961z"></path>
	<path d="M115.364,115.025c0.163-4.42-4.025-8.19-9.041-8.7c0.511,5.015,4.282,9.203,8.701,9.039
		c-1.914-0.258-3.705-1.149-4.867-2.76c-0.961-1.329-1.548-2.779-1.813-4.256c1.478,0.264,2.929,0.85,4.257,1.812
		C114.217,111.319,115.105,113.112,115.364,115.025z"></path>
	<path d="M113.541,102.952c-4.243-2.402-9.047-3.879-14.311-3.722c-0.157,5.264,1.319,10.069,3.723,14.31
		c3.386,5.966,11.493,10.027,18.291,7.702C123.567,114.445,119.507,106.338,113.541,102.952z M119.745,117.883
		c-0.041,0.546-0.133,1.081-0.258,1.605c-0.523,0.126-1.06,0.216-1.605,0.258c-6.953,0.541-12.659-4.704-15.083-10.83
		c-0.995-2.515-1.526-5.137-1.646-7.761c2.626,0.12,5.246,0.65,7.761,1.646C115.042,105.223,120.286,110.93,119.745,117.883z"></path>
	<path d="M100.065,120.514c-4.699,1.298-9.139,3.653-12.75,7.486h2.721c1.942-1.772,4.168-3.248,6.65-4.325
		c6.046-2.618,13.791-2.292,18.323,3.008c0.358,0.417,0.67,0.858,0.952,1.318h2.484C115.28,121.55,106.678,118.688,100.065,120.514z
		"></path>
	<path d="M91.655,112.461c-0.349-0.021-0.678,0.007-0.979,0.078v0.002c0.163,0.263,0.375,0.514,0.636,0.746
		c0.987,0.883,2.226,1.131,3.363,0.91h0.001v-0.001C94.027,113.235,92.976,112.534,91.655,112.461z M91.499,112.881
		c0.712,0.072,1.364,0.353,1.882,0.781C92.713,113.597,92.055,113.335,91.499,112.881z"></path>
	<path d="M104.497,126.272c1.96-0.317,3.857,0.32,5.394,1.489c-3.01-3.241-8.638-2.947-12.545,0.239h2.859
		C101.438,127.142,102.878,126.531,104.497,126.272z"></path>
	<path d="M104.455,118.247c-5.194-5.364-7.278-12.988-6.647-20.441c7.452-0.629,15.076,1.455,20.44,6.649
		c0.12-7.465,4.039-14.331,9.753-19.155v0.001v-2.46v-0.001c-0.204,0.152-0.415,0.297-0.617,0.454
		c-4.672,3.653-8.288,8.626-9.877,14.452c0.016-0.214,0.038-0.427,0.047-0.641c0.132-2.891-0.841-6.374-3.286-8.165
		c-0.94-0.69-1.934-1.027-2.899-1.09c-0.637,0.728-1.102,1.668-1.278,2.82c-0.462,2.996,1.312,6.147,3.449,8.097
		c0.159,0.144,0.325,0.28,0.487,0.419c-5.243-2.996-11.317-3.955-17.202-3.236c-0.254,0.033-0.505,0.079-0.757,0.116
		c-0.038,0.254-0.084,0.504-0.116,0.758c-0.72,5.885,0.24,11.96,3.234,17.202c-0.138-0.163-0.275-0.328-0.419-0.486
		c-1.951-2.136-5.102-3.913-8.098-3.451c-1.15,0.178-2.093,0.642-2.82,1.279c0.065,0.966,0.402,1.959,1.089,2.899
		c1.793,2.444,5.276,3.417,8.167,3.285c0.215-0.008,0.428-0.031,0.641-0.047c-5.826,1.588-10.801,5.205-14.452,9.877
		c-0.158,0.203-0.301,0.411-0.453,0.617h2.459C90.125,122.285,96.99,118.366,104.455,118.247z M113.841,97.971
		c-1.954-2.256-3.724-6.02-1.946-8.847c3.261,0.74,4.668,4.656,4.881,7.631c0.086,1.169-0.001,2.381-0.233,3.584
		C115.526,99.653,114.609,98.856,113.841,97.971z M96.757,116.777c-2.978-0.213-6.892-1.621-7.632-4.88
		c2.826-1.781,6.591-0.007,8.847,1.946c0.886,0.765,1.681,1.684,2.369,2.7C99.137,116.776,97.924,116.861,96.757,116.777z"></path>
	<path d="M121.155,125.165c1.04-0.234,2.051-0.568,3.024-0.988c0.419-0.972,0.752-1.981,0.986-3.022
		c0.902,0.569,1.852,1.049,2.836,1.439l0,0v-2.102l0,0c-1.515-0.638-2.93-1.518-4.193-2.614c-0.117,1.666-0.494,3.291-1.115,4.813
		c-1.523,0.621-3.149,1-4.814,1.116c1.095,1.261,1.977,2.676,2.613,4.193h2.102C122.203,127.017,121.724,126.066,121.155,125.165z"></path>
	<path d="M0.239,109.889C3.48,106.881,3.184,101.253,0,97.347v2.859c0.857,1.233,1.468,2.672,1.728,4.291
		C2.047,106.457,1.408,108.354,0.239,109.889z"></path>
	<path d="M7.486,100.065C6.187,95.366,3.833,90.926,0,87.314v2.721c1.771,1.94,3.247,4.168,4.325,6.651
		c2.618,6.047,2.291,13.79-3.007,18.323c-0.417,0.357-0.86,0.671-1.318,0.952v2.484C6.449,115.28,9.312,106.677,7.486,100.065z"></path>
	<path d="M14.711,91.311c-0.883,0.987-1.131,2.227-0.909,3.364l0.002-0.002c0.96-0.646,1.66-1.699,1.734-3.019
		c0.021-0.35-0.007-0.677-0.079-0.979C15.196,90.838,14.944,91.051,14.711,91.311z M14.339,93.382
		c0.063-0.669,0.326-1.327,0.781-1.884C15.046,92.212,14.767,92.862,14.339,93.382z"></path>
	<path d="M33.323,114.197l0.001-0.001c1.137,0.222,2.376-0.026,3.363-0.908c0.262-0.232,0.474-0.484,0.636-0.748
		c-0.301-0.072-0.629-0.101-0.979-0.077C35.022,112.534,33.972,113.236,33.323,114.197z M34.618,113.661
		c0.517-0.428,1.168-0.71,1.882-0.781C35.945,113.335,35.286,113.595,34.618,113.661z"></path>
	<path d="M18.11,127.761c1.536-1.171,3.43-1.808,5.393-1.489c1.618,0.259,3.056,0.869,4.289,1.728h2.859
		C26.745,124.814,21.119,124.52,18.11,127.761z"></path>
	<path d="M27.935,120.513c-6.613-1.825-15.217,1.035-18.38,7.487h2.483c0.283-0.459,0.596-0.902,0.952-1.318
		c4.533-5.299,12.278-5.625,18.323-3.007c2.481,1.078,4.71,2.554,6.65,4.325h2.722C37.073,124.167,32.633,121.812,27.935,120.513z"></path>
	<path d="M30.255,117.506c0.212,0.016,0.425,0.039,0.639,0.047c2.89,0.13,6.375-0.842,8.166-3.285
		c0.69-0.939,1.027-1.934,1.089-2.899c-0.726-0.638-1.667-1.104-2.818-1.279c-2.996-0.462-6.148,1.315-8.099,3.451
		c-0.144,0.158-0.28,0.323-0.418,0.486c2.995-5.242,3.954-11.316,3.234-17.202c-0.033-0.254-0.078-0.504-0.116-0.758
		c-0.253-0.037-0.503-0.083-0.758-0.116c-5.884-0.721-11.96,0.241-17.202,3.236c0.162-0.14,0.328-0.275,0.486-0.419
		c2.138-1.95,3.913-5.102,3.451-8.099c-0.178-1.15-0.641-2.092-1.279-2.818c-0.965,0.063-1.959,0.4-2.899,1.09
		c-2.444,1.792-3.416,5.274-3.284,8.165c0.009,0.214,0.03,0.427,0.047,0.641c-1.589-5.826-5.206-10.8-9.877-14.451
		C0.413,83.138,0.205,82.993,0,82.841v2.46c5.715,4.824,9.633,11.69,9.753,19.155c5.361-5.196,12.987-7.279,20.44-6.65
		c0.629,7.453-1.456,15.078-6.649,20.441c7.466,0.118,14.33,4.037,19.155,9.753h2.459c-0.151-0.207-0.296-0.415-0.454-0.617
		C41.053,122.711,36.079,119.095,30.255,117.506z M11.456,100.341c-0.233-1.205-0.319-2.416-0.233-3.585
		c0.212-2.975,1.62-6.892,4.878-7.631c1.781,2.827,0.008,6.591-1.945,8.847C13.39,98.858,12.472,99.653,11.456,100.341z
		 M30.028,113.843c2.255-1.955,6.02-3.727,8.848-1.946c-0.74,3.258-4.655,4.666-7.632,4.88c-1.168,0.086-2.38-0.001-3.584-0.234
		C28.346,115.528,29.141,114.608,30.028,113.843z"></path>
	<path d="M12.635,115.025c0.259-1.914,1.149-3.705,2.762-4.866c1.329-0.962,2.777-1.548,4.256-1.812
		c-0.265,1.478-0.85,2.928-1.813,4.256c-1.161,1.611-2.953,2.502-4.865,2.76c4.419,0.165,8.19-4.023,8.701-9.038
		C16.66,106.835,12.472,110.606,12.635,115.025z"></path>
	<path d="M14.459,102.952c-5.968,3.386-10.028,11.493-7.703,18.29c6.798,2.325,14.906-1.736,18.291-7.702
		c2.404-4.241,3.878-9.045,3.722-14.31C23.504,99.074,18.7,100.549,14.459,102.952z M25.199,108.916
		c-2.423,6.126-8.13,11.371-15.081,10.831c-0.547-0.042-1.082-0.136-1.606-0.26c-0.126-0.523-0.217-1.058-0.258-1.605
		c-0.542-6.952,4.704-12.659,10.829-15.082c2.517-0.994,5.138-1.526,7.761-1.645C26.725,103.779,26.193,106.401,25.199,108.916z"></path>
	<path d="M2.835,121.155c0.234,1.039,0.567,2.05,0.987,3.022c0.972,0.42,1.983,0.754,3.023,0.989
		c-0.57,0.9-1.048,1.849-1.438,2.834h2.102c0.637-1.516,1.518-2.933,2.613-4.192c-1.666-0.118-3.29-0.495-4.813-1.117
		c-0.622-1.522-1-3.147-1.116-4.813c-1.262,1.096-2.678,1.975-4.193,2.614v2.102C0.983,122.204,1.934,121.724,2.835,121.155z"></path>
	<polygon points="48.54,26.677 48.54,26.677 48.54,26.677 	"></polygon>
	<path d="M48.54,26.677c-0.073,0.301-0.1,0.629-0.079,0.979c0.072,1.321,0.774,2.373,1.734,3.02h0.001v-0.001
		c0.222-1.137-0.026-2.376-0.909-3.363C49.055,27.051,48.804,26.839,48.54,26.677z M48.881,27.499
		c0.453,0.556,0.715,1.214,0.778,1.884C49.232,28.864,48.952,28.212,48.881,27.499z"></path>
	<path d="M63.761,45.89c-1.169-1.536-1.809-3.432-1.49-5.392c0.259-1.62,0.871-3.06,1.728-4.294
		c0.859,1.234,1.468,2.673,1.73,4.293c0.319,1.961-0.321,3.857-1.491,5.393c3.243-3.008,2.947-8.637-0.239-12.543
		C60.814,37.253,60.519,42.882,63.761,45.89z"></path>
	<path d="M63.999,23.314c-3.834,3.611-6.186,8.052-7.486,12.75c-1.825,6.613,1.037,15.218,7.486,18.382
		c6.452-3.164,9.314-11.769,7.488-18.381C70.188,31.366,67.833,26.925,63.999,23.314z M65.317,51.01
		c-0.416,0.357-0.859,0.672-1.318,0.951c-0.457-0.279-0.9-0.594-1.318-0.951c-5.299-4.534-5.625-12.277-3.007-18.323
		c1.077-2.483,2.552-4.711,4.325-6.651c1.772,1.94,3.247,4.169,4.326,6.651C70.943,38.733,70.617,46.477,65.317,51.01z"></path>
	<path d="M78.712,27.312c-0.883,0.986-1.131,2.226-0.91,3.364l0.003-0.002c0.96-0.646,1.66-1.697,1.734-3.019
		c0.021-0.349-0.007-0.677-0.079-0.979C79.197,26.839,78.945,27.051,78.712,27.312z M78.34,29.382
		c0.063-0.669,0.326-1.327,0.781-1.883C79.047,28.212,78.768,28.863,78.34,29.382z"></path>
	<path d="M77.805,97.324h-0.003l0.003,0.003c-0.224,1.136,0.025,2.375,0.907,3.362c0.232,0.262,0.484,0.474,0.748,0.634
		c0.072-0.301,0.101-0.629,0.079-0.978C79.467,99.024,78.765,97.972,77.805,97.324z M78.34,98.618
		c0.428,0.516,0.707,1.17,0.781,1.884C78.666,99.946,78.403,99.287,78.34,98.618z"></path>
	<path d="M65.729,87.502c-0.261,1.622-0.871,3.06-1.73,4.292c-0.858-1.232-1.47-2.67-1.729-4.292
		c-0.319-1.959,0.321-3.856,1.49-5.392c-3.242,3.009-2.946,8.636,0.238,12.543c3.188-3.907,3.482-9.534,0.24-12.543
		C65.408,83.646,66.048,85.542,65.729,87.502z"></path>
	<path d="M63.999,73.555c-6.449,3.165-9.31,11.768-7.486,18.381c1.299,4.699,3.652,9.139,7.486,12.751
		c3.834-3.612,6.189-8.052,7.488-12.75C73.313,85.323,70.451,76.72,63.999,73.555z M68.325,95.315
		c-1.078,2.481-2.554,4.71-4.326,6.649c-1.772-1.939-3.249-4.169-4.324-6.649c-2.618-6.049-2.292-13.791,3.007-18.325
		c0.417-0.356,0.86-0.67,1.318-0.951c0.459,0.281,0.904,0.595,1.318,0.951C70.618,81.524,70.943,89.266,68.325,95.315z"></path>
	<path d="M51.364,51.025c0.163-4.42-4.025-8.19-9.039-8.7c0.51,5.015,4.281,9.204,8.7,9.039
		c-1.913-0.259-3.705-1.148-4.866-2.761c-0.96-1.329-1.547-2.778-1.813-4.256c1.479,0.264,2.929,0.85,4.258,1.813
		C50.216,47.32,51.105,49.112,51.364,51.025z"></path>
	<path d="M49.54,38.952c-4.242-2.402-9.046-3.879-14.311-3.721c-0.157,5.263,1.319,10.068,3.723,14.31
		c3.386,5.966,11.494,10.027,18.29,7.702C59.566,50.446,55.506,42.338,49.54,38.952z M55.745,53.883
		c-0.04,0.546-0.132,1.081-0.258,1.605c-0.523,0.125-1.059,0.216-1.605,0.258c-6.953,0.541-12.66-4.705-15.083-10.83
		c-0.995-2.516-1.525-5.137-1.645-7.761c2.626,0.12,5.246,0.65,7.761,1.645C51.042,41.224,56.285,46.931,55.745,53.883z"></path>
	<path d="M97.324,77.804h0.001c0.646,0.958,1.698,1.661,3.021,1.735c0.349,0.02,0.677-0.007,0.978-0.08
		c-0.162-0.265-0.374-0.515-0.636-0.747C99.701,77.831,98.463,77.582,97.324,77.804z M98.619,78.34
		c0.667,0.064,1.327,0.325,1.882,0.779C99.788,79.047,99.137,78.767,98.619,78.34z"></path>
	<path d="M76.976,76.637c1.913,0.259,3.704,1.149,4.865,2.759c0.962,1.331,1.548,2.779,1.813,4.258
		c-1.48-0.267-2.928-0.85-4.256-1.812c-1.613-1.163-2.502-2.953-2.762-4.867c-0.165,4.42,4.025,8.19,9.039,8.701
		C85.165,80.661,81.395,76.473,76.976,76.637z"></path>
	<path d="M70.758,70.758c-2.325,6.796,1.735,14.903,7.702,18.289c4.241,2.402,9.045,3.879,14.31,3.722
		c0.157-5.265-1.318-10.067-3.721-14.308C85.663,72.492,77.554,68.433,70.758,70.758z M90.845,90.845
		c-2.623-0.12-5.244-0.65-7.76-1.644c-6.128-2.423-11.373-8.131-10.831-15.083c0.042-0.547,0.133-1.083,0.259-1.605
		c0.523-0.126,1.058-0.217,1.605-0.257c6.952-0.542,12.658,4.703,15.081,10.829C90.195,85.599,90.725,88.221,90.845,90.845z"></path>
	<path d="M27.311,78.713c-0.261,0.232-0.474,0.482-0.635,0.747c0.301,0.073,0.629,0.099,0.978,0.08
		c1.321-0.074,2.373-0.777,3.021-1.736C29.537,77.582,28.298,77.83,27.311,78.713z M27.499,79.119
		c0.556-0.454,1.214-0.715,1.882-0.779C28.863,78.767,28.213,79.047,27.499,79.119z"></path>
	<path d="M36.064,56.514c-4.698,1.299-9.139,3.653-12.75,7.486c3.611,3.833,8.052,6.189,12.75,7.487
		c6.613,1.824,15.217-1.037,18.381-7.487C51.281,57.55,42.677,54.688,36.064,56.514z M51.009,65.318
		c-4.533,5.298-12.277,5.625-18.324,3.007c-2.483-1.077-4.709-2.555-6.651-4.325c1.942-1.771,4.168-3.248,6.651-4.325
		c6.047-2.618,13.791-2.292,18.324,3.007c0.357,0.417,0.67,0.86,0.951,1.318C51.679,64.458,51.366,64.901,51.009,65.318z"></path>
	<path d="M27.654,48.461c-0.349-0.02-0.677,0.007-0.979,0.079v0.002c0.162,0.263,0.374,0.514,0.636,0.746
		c0.987,0.883,2.225,1.131,3.363,0.91h0.001l0,0C30.027,49.236,28.975,48.534,27.654,48.461z M27.499,48.881
		c0.712,0.072,1.364,0.353,1.882,0.781C28.713,49.597,28.055,49.335,27.499,48.881z"></path>
	<path d="M45.89,63.761C42.88,60.52,37.252,60.815,33.345,64c3.907,3.184,9.534,3.48,12.545,0.24
		c-1.537,1.169-3.434,1.806-5.394,1.489c-1.62-0.26-3.06-0.87-4.293-1.728c1.233-0.858,2.673-1.469,4.293-1.728
		C42.457,61.954,44.353,62.591,45.89,63.761z"></path>
	<path d="M97.324,50.197h0.001c1.137,0.221,2.376-0.027,3.363-0.91c0.262-0.232,0.474-0.483,0.636-0.748
		c-0.301-0.072-0.629-0.1-0.979-0.078C99.023,48.535,97.973,49.237,97.324,50.197z M98.619,49.661
		c0.517-0.428,1.168-0.708,1.882-0.78C99.946,49.336,99.287,49.597,98.619,49.661z"></path>
	<path d="M82.111,63.761c1.536-1.17,3.43-1.807,5.393-1.489c1.619,0.259,3.058,0.87,4.29,1.729
		c-1.232,0.858-2.671,1.468-4.29,1.728c-1.963,0.317-3.857-0.32-5.393-1.489c3.009,3.241,8.636,2.945,12.542-0.239
		C90.748,60.815,85.12,60.52,82.111,63.761z"></path>
	<path d="M91.936,56.514C85.323,54.688,76.719,57.55,73.556,64c3.163,6.451,11.767,9.311,18.38,7.487
		c4.698-1.299,9.139-3.654,12.751-7.487C101.076,60.167,96.634,57.812,91.936,56.514z M95.314,68.325
		c-6.046,2.618-13.791,2.291-18.323-3.007c-0.355-0.417-0.67-0.86-0.952-1.318c0.282-0.459,0.596-0.902,0.952-1.318
		c4.532-5.298,12.277-5.625,18.323-3.007c2.483,1.078,4.711,2.554,6.651,4.325C100.025,65.77,97.797,67.248,95.314,68.325z"></path>
	<path d="M94.254,53.506c0.213,0.016,0.425,0.039,0.64,0.047c2.891,0.13,6.375-0.841,8.167-3.285
		c0.69-0.939,1.027-1.934,1.089-2.899c-0.727-0.638-1.666-1.104-2.818-1.279c-2.996-0.461-6.147,1.315-8.099,3.451
		c-0.143,0.159-0.279,0.324-0.417,0.487c2.995-5.243,3.954-11.318,3.234-17.202c-0.033-0.255-0.079-0.505-0.116-0.759
		c-0.253-0.037-0.503-0.083-0.758-0.115c-5.884-0.722-11.96,0.24-17.202,3.235c0.162-0.139,0.328-0.275,0.486-0.419
		c2.138-1.951,3.913-5.102,3.451-8.098c-0.178-1.151-0.641-2.092-1.279-2.82c-0.965,0.064-1.959,0.4-2.899,1.09
		c-2.444,1.792-3.416,5.276-3.284,8.165c0.009,0.214,0.03,0.428,0.046,0.641c-1.589-5.825-5.206-10.799-9.877-14.451
		c-0.203-0.157-0.412-0.302-0.617-0.455c-0.204,0.153-0.415,0.297-0.617,0.454c-4.671,3.653-8.287,8.627-9.876,14.452
		c0.016-0.213,0.038-0.427,0.047-0.641c0.132-2.89-0.84-6.374-3.284-8.165c-0.94-0.69-1.934-1.026-2.899-1.09
		c-0.636,0.727-1.102,1.668-1.279,2.82c-0.462,2.995,1.313,6.147,3.449,8.097c0.16,0.144,0.324,0.28,0.488,0.419
		c-5.243-2.996-11.318-3.956-17.203-3.235c-0.254,0.032-0.505,0.078-0.757,0.115c-0.038,0.253-0.084,0.504-0.116,0.759
		c-0.72,5.885,0.24,11.959,3.235,17.202c-0.139-0.163-0.276-0.328-0.419-0.487c-1.952-2.136-5.103-3.913-8.099-3.451
		c-1.15,0.178-2.092,0.642-2.818,1.279c0.063,0.966,0.4,1.96,1.089,2.899c1.792,2.444,5.276,3.416,8.165,3.285
		c0.215-0.009,0.428-0.032,0.642-0.047c-5.825,1.589-10.8,5.205-14.451,9.876c-0.158,0.203-0.303,0.412-0.454,0.617
		c0.151,0.205,0.296,0.415,0.454,0.616c3.653,4.672,8.626,8.289,14.451,9.878c-0.214-0.016-0.427-0.039-0.642-0.049
		c-2.889-0.13-6.373,0.842-8.165,3.287c-0.689,0.939-1.026,1.934-1.089,2.899c0.727,0.639,1.668,1.102,2.819,1.278
		c2.995,0.462,6.146-1.313,8.098-3.45c0.143-0.157,0.28-0.324,0.419-0.486c-2.995,5.242-3.955,11.317-3.235,17.202
		c0.032,0.254,0.078,0.504,0.116,0.757c0.252,0.038,0.503,0.084,0.757,0.116c5.885,0.721,11.962-0.238,17.204-3.234
		c-0.164,0.14-0.329,0.274-0.488,0.419c-2.136,1.952-3.912,5.102-3.45,8.099c0.177,1.151,0.642,2.092,1.279,2.819
		c0.966-0.064,1.959-0.4,2.899-1.09c2.444-1.792,3.416-5.275,3.284-8.166c-0.008-0.214-0.03-0.427-0.047-0.642
		c1.589,5.825,5.204,10.8,9.876,14.452c0.203,0.159,0.413,0.302,0.617,0.454c0.205-0.152,0.415-0.296,0.617-0.454
		c4.674-3.652,8.288-8.627,9.877-14.452c-0.016,0.215-0.037,0.428-0.046,0.642c-0.132,2.89,0.84,6.374,3.284,8.166
		c0.94,0.69,1.934,1.026,2.899,1.09c0.638-0.726,1.102-1.668,1.279-2.818c0.462-2.998-1.314-6.149-3.45-8.099
		c-0.159-0.146-0.325-0.28-0.487-0.42c5.242,2.997,11.318,3.956,17.202,3.234c0.255-0.03,0.505-0.077,0.76-0.114
		c0.037-0.254,0.083-0.504,0.115-0.758c0.721-5.885-0.24-11.96-3.236-17.202c0.14,0.163,0.275,0.328,0.419,0.488
		c1.952,2.136,5.102,3.91,8.099,3.448c1.152-0.176,2.092-0.64,2.818-1.278c-0.062-0.965-0.399-1.959-1.089-2.899
		c-1.792-2.444-5.276-3.416-8.167-3.286c-0.213,0.009-0.426,0.033-0.641,0.048c5.826-1.589,10.799-5.206,14.452-9.878
		c0.158-0.201,0.303-0.41,0.454-0.615c-0.151-0.206-0.296-0.415-0.454-0.618C105.054,58.711,100.079,55.095,94.254,53.506z
		 M94.028,49.843c2.256-1.953,6.021-3.727,8.848-1.946c-0.74,3.258-4.655,4.667-7.632,4.88c-1.169,0.085-2.38-0.001-3.584-0.234
		C92.347,51.529,93.142,50.609,94.028,49.843z M75.224,32.755c0.212-2.975,1.62-6.892,4.878-7.631
		c1.781,2.826,0.008,6.591-1.946,8.847c-0.766,0.887-1.684,1.681-2.7,2.369C75.224,35.136,75.139,33.924,75.224,32.755z
		 M49.842,33.972c-1.953-2.256-3.725-6.02-1.946-8.847c3.26,0.74,4.667,4.656,4.88,7.631c0.086,1.169-0.001,2.381-0.233,3.584
		C51.525,35.653,50.609,34.856,49.842,33.972z M32.756,52.778c-2.976-0.213-6.892-1.621-7.632-4.88
		c2.826-1.782,6.591-0.008,8.847,1.946c0.887,0.765,1.682,1.684,2.369,2.7C35.136,52.777,33.923,52.862,32.756,52.778z
		 M33.971,78.157c-2.256,1.953-6.02,3.725-8.848,1.945c0.74-3.258,4.657-4.665,7.632-4.88c1.168-0.084,2.38,0,3.584,0.234
		C35.652,76.473,34.857,77.391,33.971,78.157z M52.777,95.246c-0.214,2.974-1.621,6.89-4.882,7.631
		c-1.779-2.827-0.006-6.592,1.947-8.848c0.765-0.885,1.683-1.681,2.7-2.368C52.775,92.863,52.861,94.076,52.777,95.246z
		 M78.157,94.028c1.955,2.256,3.727,6.022,1.947,8.848c-3.259-0.742-4.668-4.656-4.88-7.63c-0.085-1.17,0-2.383,0.233-3.586
		C76.473,92.347,77.391,93.144,78.157,94.028z M95.246,75.223c2.976,0.213,6.89,1.622,7.631,4.88
		c-2.828,1.78-6.591,0.007-8.848-1.945c-0.886-0.766-1.68-1.684-2.368-2.701C92.864,75.223,94.075,75.139,95.246,75.223z
		 M87.544,73.751c5.196,5.364,7.279,12.989,6.65,20.443c-7.453,0.629-15.079-1.456-20.44-6.649
		c-0.12,7.466-4.039,14.331-9.755,19.155c-5.715-4.824-9.633-11.689-9.752-19.155c-5.365,5.193-12.989,7.278-20.44,6.647
		c-0.631-7.452,1.454-15.076,6.647-20.438l0.002-0.003c-0.002,0-0.002,0-0.002,0C32.989,73.632,26.124,69.714,21.3,64
		c4.824-5.715,11.689-9.633,19.155-9.753c-5.194-5.363-7.279-12.988-6.648-20.441c7.452-0.63,15.076,1.455,20.44,6.648
		c0.12-7.465,4.038-14.33,9.753-19.155c5.716,4.825,9.635,11.69,9.755,19.156c5.362-5.196,12.987-7.279,20.44-6.649
		c0.629,7.452-1.456,15.078-6.65,20.441c7.468,0.119,14.332,4.037,19.157,9.753C101.876,69.716,95.01,73.633,87.544,73.751z"></path>
	<path d="M48.461,100.345c-0.02,0.35,0.006,0.677,0.079,0.978c0.264-0.161,0.515-0.373,0.747-0.634
		c0.882-0.987,1.131-2.226,0.909-3.365C49.235,97.972,48.533,99.024,48.461,100.345z M48.881,100.502
		c0.071-0.713,0.351-1.368,0.779-1.884C49.596,99.287,49.335,99.946,48.881,100.502z"></path>
	<path d="M48.603,81.842c-1.331,0.962-2.78,1.545-4.258,1.812c0.266-1.478,0.852-2.926,1.813-4.258
		c1.162-1.612,2.954-2.5,4.866-2.759c-4.42-0.163-8.19,4.024-8.7,9.039c5.015-0.511,9.203-4.281,9.039-8.701
		C51.104,78.889,50.216,80.679,48.603,81.842z"></path>
	<path d="M38.952,78.461c-2.404,4.241-3.879,9.044-3.723,14.308c5.266,0.157,10.069-1.32,14.311-3.722
		c5.966-3.386,10.026-11.493,7.702-18.289C50.445,68.433,42.338,72.492,38.952,78.461z M44.915,89.201
		c-2.516,0.992-5.136,1.524-7.761,1.644c0.12-2.624,0.651-5.246,1.645-7.761c2.423-6.126,8.13-11.37,15.084-10.829
		c0.545,0.039,1.081,0.131,1.603,0.257c0.126,0.523,0.218,1.058,0.259,1.605C56.285,81.07,51.042,86.778,44.915,89.201z"></path>
	<path d="M76.636,51.025c0.259-1.913,1.149-3.705,2.762-4.866c1.328-0.963,2.776-1.549,4.256-1.813
		c-0.265,1.478-0.85,2.928-1.813,4.256c-1.161,1.612-2.953,2.502-4.865,2.76c4.419,0.165,8.189-4.024,8.7-9.038
		C80.66,42.835,76.472,46.606,76.636,51.025z"></path>
	<path d="M78.46,38.952c-5.967,3.386-10.026,11.493-7.702,18.291c6.796,2.325,14.905-1.736,18.29-7.703
		c2.404-4.241,3.878-9.045,3.721-14.309C87.504,35.074,82.701,36.55,78.46,38.952z M89.2,44.916
		c-2.423,6.126-8.13,11.371-15.081,10.83c-0.548-0.042-1.082-0.135-1.606-0.259c-0.126-0.523-0.217-1.058-0.258-1.605
		c-0.542-6.953,4.703-12.659,10.83-15.083c2.517-0.994,5.138-1.526,7.761-1.645C90.725,39.78,90.193,42.401,89.2,44.916z"></path>
	<path d="M69.31,58.691c-0.623-1.522-1-3.147-1.116-4.813c-1.262,1.095-2.677,1.976-4.194,2.613
		c-1.514-0.637-2.93-1.517-4.192-2.613c-0.117,1.665-0.494,3.291-1.116,4.813c-1.523,0.621-3.147,0.999-4.814,1.116
		c1.097,1.261,1.977,2.676,2.614,4.192c-0.637,1.516-1.518,2.931-2.614,4.193c1.667,0.116,3.291,0.495,4.814,1.117
		c0.621,1.522,0.998,3.147,1.116,4.812c1.262-1.095,2.677-1.977,4.192-2.613c1.517,0.636,2.933,1.518,4.193,2.613
		c0.117-1.665,0.495-3.289,1.116-4.812c1.523-0.619,3.147-1.001,4.814-1.117c-1.095-1.261-1.977-2.677-2.613-4.192
		c0.636-1.516,1.518-2.933,2.613-4.193C72.456,59.69,70.832,59.313,69.31,58.691z M70.846,66.835
		c-1.04,0.234-2.051,0.568-3.024,0.986c-0.419,0.974-0.752,1.985-0.986,3.025c-0.903-0.571-1.852-1.049-2.837-1.441
		c-0.983,0.392-1.934,0.87-2.835,1.441c-0.236-1.042-0.568-2.051-0.987-3.025c-0.973-0.418-1.982-0.752-3.024-0.986
		c0.569-0.902,1.048-1.851,1.439-2.835c-0.39-0.983-0.87-1.934-1.438-2.835c1.04-0.236,2.05-0.569,3.023-0.988
		c0.419-0.973,0.752-1.982,0.987-3.022c0.901,0.57,1.851,1.048,2.835,1.439c0.985-0.39,1.935-0.869,2.837-1.439
		c0.234,1.039,0.566,2.051,0.986,3.022c0.973,0.42,1.984,0.752,3.024,0.989c-0.57,0.9-1.048,1.851-1.439,2.835
		C69.798,64.984,70.277,65.934,70.846,66.835z"></path>
	<path d="M126.272,23.503c-0.319-1.96,0.32-3.857,1.49-5.393c-3.242,3.009-2.946,8.638,0.238,12.545v-0.001v-2.859
		v0.001C127.143,26.564,126.531,25.125,126.272,23.503z"></path>
	<path d="M128,37.965c-1.772-1.94-3.249-4.169-4.324-6.649c-2.62-6.049-2.293-13.792,3.006-18.325
		c0.417-0.357,0.86-0.671,1.318-0.951v0.001V9.555l0,0c-6.45,3.165-9.312,11.768-7.486,18.381c1.299,4.698,3.651,9.139,7.486,12.75
		l0,0V37.965L128,37.965z"></path>
	<path d="M91.311,14.713c-0.261,0.232-0.473,0.482-0.634,0.748c0.3,0.072,0.629,0.099,0.978,0.079
		c1.322-0.073,2.372-0.776,3.021-1.736C93.538,13.582,92.298,13.83,91.311,14.713z M91.499,15.119
		c0.555-0.454,1.214-0.715,1.882-0.779C92.863,14.766,92.213,15.047,91.499,15.119z"></path>
	<path d="M100.065,7.487c6.613,1.824,15.217-1.037,18.38-7.487l0,0h-2.484l0,0c-0.28,0.459-0.594,0.902-0.952,1.319
		c-4.532,5.298-12.276,5.625-18.323,3.006c-2.483-1.077-4.71-2.554-6.65-4.325l0,0h-2.721h-0.001
		C90.925,3.834,95.365,6.189,100.065,7.487z"></path>
	<path d="M109.891,0.24c-1.537,1.169-3.434,1.807-5.394,1.489c-1.619-0.259-3.059-0.87-4.292-1.728
		c0.001,0,0.001,0,0.001,0h-2.859l0,0C101.253,3.185,106.881,3.48,109.891,0.24z"></path>
	<path d="M128,42.7c-5.716-4.824-9.633-11.689-9.753-19.155c-5.364,5.193-12.988,7.278-20.439,6.648
		c-0.632-7.452,1.452-15.077,6.646-20.439l0.001-0.003c-0.001,0-0.001,0-0.001,0C96.99,9.632,90.125,5.714,85.301,0l0,0h-2.459l0,0
		c0.151,0.206,0.295,0.415,0.453,0.617c3.653,4.672,8.626,8.288,14.452,9.878c-0.213-0.016-0.426-0.039-0.641-0.05
		c-2.891-0.129-6.374,0.842-8.167,3.287c-0.688,0.94-1.024,1.934-1.089,2.899c0.728,0.638,1.668,1.102,2.82,1.278
		c2.996,0.463,6.147-1.312,8.098-3.45c0.144-0.157,0.28-0.323,0.419-0.486c-2.995,5.242-3.954,11.318-3.234,17.202
		c0.032,0.254,0.078,0.505,0.116,0.757c0.251,0.039,0.503,0.084,0.757,0.116c5.885,0.721,11.96-0.238,17.203-3.234
		c-0.163,0.14-0.329,0.273-0.488,0.418c-2.135,1.952-3.911,5.102-3.449,8.1c0.176,1.15,0.642,2.092,1.278,2.819
		c0.966-0.065,1.96-0.4,2.899-1.091c2.444-1.792,3.417-5.275,3.286-8.165c-0.009-0.215-0.032-0.427-0.047-0.642
		c1.589,5.825,5.205,10.799,9.877,14.451c0.203,0.159,0.413,0.303,0.617,0.455v-0.001V42.7L128,42.7z M97.972,14.157
		c-2.256,1.953-6.02,3.725-8.847,1.946c0.74-3.258,4.656-4.665,7.632-4.88c1.168-0.084,2.38,0,3.584,0.234
		C99.653,12.474,98.858,13.391,97.972,14.157z M116.777,31.246c-0.213,2.973-1.62,6.89-4.881,7.63
		c-1.778-2.828-0.007-6.592,1.947-8.847c0.766-0.886,1.684-1.681,2.701-2.369C116.776,28.864,116.862,30.077,116.777,31.246z"></path>
	<path d="M112.462,36.345c-0.021,0.35,0.005,0.677,0.079,0.979c0.263-0.161,0.515-0.373,0.746-0.635
		c0.882-0.987,1.132-2.226,0.91-3.365C113.236,33.973,112.534,35.024,112.462,36.345z M112.881,36.502
		c0.071-0.713,0.353-1.367,0.779-1.884C113.597,35.287,113.335,35.947,112.881,36.502z"></path>
	<path d="M112.603,17.842c-1.331,0.962-2.779,1.545-4.257,1.811c0.265-1.478,0.852-2.926,1.813-4.257
		c1.162-1.612,2.953-2.5,4.867-2.76c-4.42-0.163-8.19,4.024-8.701,9.039c5.015-0.511,9.204-4.281,9.041-8.701
		C115.105,14.889,114.217,16.679,112.603,17.842z"></path>
	<path d="M102.953,14.461c-2.404,4.241-3.879,9.043-3.723,14.308c5.265,0.157,10.069-1.319,14.31-3.722
		c5.967-3.386,10.028-11.494,7.703-18.29C114.446,4.433,106.338,8.493,102.953,14.461z M108.916,25.201
		c-2.516,0.994-5.136,1.526-7.761,1.645c0.12-2.625,0.65-5.247,1.646-7.762c2.423-6.125,8.13-11.371,15.083-10.829
		c0.545,0.04,1.082,0.131,1.605,0.257c0.126,0.523,0.217,1.058,0.258,1.605C120.286,17.07,115.042,22.778,108.916,25.201z"></path>
	<path d="M128,5.405c-0.983,0.392-1.934,0.87-2.834,1.441c-0.237-1.042-0.569-2.051-0.987-3.025
		c-0.973-0.417-1.984-0.752-3.024-0.986c0.569-0.901,1.048-1.851,1.439-2.835l0,0h-2.102l0,0c-0.636,1.516-1.518,2.931-2.613,4.192
		c1.666,0.116,3.291,0.495,4.814,1.117c0.621,1.522,0.998,3.147,1.115,4.812c1.262-1.095,2.677-1.977,4.193-2.613l0,0V5.405
		L128,5.405z"></path>
	<path d="M80.78,6.699c-1.171,0.425-2.048,1.35-2.442,2.53c-0.815,2.469,1.602,5.642,4.192,3.995
		c0.903-0.763,1.106-2.106,0.157-2.731c0.016,1.436-2.435,1.634-2.649-0.083c-0.228-1.821,1.639-2.855,3.045-2.456
		c3.113,0.883,2.654,5.222,0.272,6.417c-1.877,0.941-4.103,0.628-5.613-0.628c1.254,1.512,1.568,3.736,0.625,5.615
		c-1.193,2.381-5.531,2.839-6.415-0.272c-0.4-1.406,0.636-3.274,2.456-3.047c1.717,0.215,1.518,2.666,0.08,2.65
		c0.628,0.949,1.969,0.745,2.733-0.157c1.648-2.592-1.526-5.007-3.995-4.192c-1.179,0.392-2.105,1.27-2.53,2.442
		c-0.849,2.348,0.411,5.014,2.85,5.694c1.939,0.542,4.295-0.156,5.531-1.74c1.15-1.478,1.441-3.08,1.091-4.563
		c1.484,0.35,3.084,0.059,4.564-1.091c1.584-1.236,2.283-3.592,1.74-5.533C85.793,7.109,83.129,5.85,80.78,6.699z"></path>
	<path d="M54.771,14.339c-2.469-0.815-5.643,1.601-3.996,4.192c0.763,0.902,2.106,1.106,2.732,0.157
		c-1.435,0.016-1.634-2.436,0.082-2.65c1.82-0.226,2.856,1.641,2.456,3.047c-0.883,3.112-5.222,2.653-6.416,0.272
		c-0.943-1.878-0.629-4.102,0.628-5.615c-1.513,1.256-3.737,1.569-5.615,0.628c-2.381-1.195-2.839-5.534,0.272-6.417
		c1.407-0.399,3.274,0.636,3.047,2.456c-0.213,1.717-2.665,1.518-2.65,0.082c-0.949,0.627-0.746,1.969,0.157,2.733
		c2.591,1.648,5.008-1.527,4.193-3.995c-0.392-1.179-1.271-2.105-2.442-2.53c-2.349-0.849-5.014,0.411-5.694,2.848
		c-0.542,1.94,0.156,4.297,1.74,5.533c1.478,1.15,3.08,1.441,4.564,1.091c-0.351,1.484-0.061,3.084,1.091,4.563
		c1.235,1.583,3.592,2.282,5.533,1.739c2.437-0.679,3.697-3.345,2.849-5.693C56.875,15.609,55.951,14.731,54.771,14.339z"></path>
	<path d="M48.589,2.548c0.92,1.029,1.894,1.939,2.9,2.783c-0.116,1.309-0.161,2.639-0.084,4.016
		c0.062,1.116,0.221,2.165,0.433,3.174c1.008,0.212,2.056,0.369,3.173,0.432c1.376,0.078,2.707,0.032,4.015-0.084
		c0.844,1.008,1.755,1.981,2.784,2.901c0.832,0.742,1.684,1.374,2.548,1.938c0.863-0.563,1.716-1.195,2.55-1.938
		c1.028-0.92,1.938-1.894,2.781-2.901c1.308,0.117,2.639,0.163,4.016,0.084c1.115-0.063,2.164-0.22,3.175-0.432
		c0.211-1.008,0.369-2.057,0.431-3.174c0.078-1.377,0.032-2.707-0.084-4.016c1.008-0.844,1.982-1.753,2.9-2.783
		C80.871,1.716,81.503,0.862,82.066,0l0,0h-1.998l0,0c-1.381,1.616-2.981,3.124-4.661,4.578l-0.001-0.003
		c0.163,2.217,0.226,4.413,0.063,6.535c-2.122,0.165-4.319,0.1-6.534-0.062c-1.452,1.682-2.96,3.28-4.576,4.662
		c-1.615-1.383-3.124-2.981-4.576-4.662v-0.001c-2.217,0.163-4.413,0.228-6.534,0.063c-0.164-2.122-0.1-4.316,0.062-6.535
		C51.629,3.124,50.029,1.616,48.647,0l0,0H46.65l0,0C47.213,0.862,47.846,1.716,48.589,2.548z"></path>
	<polygon points="59.046,2.197 59.044,2.2 59.046,2.201 	"></polygon>
	<path d="M56.952,3.067c-0.508,1.663-0.766,3.38-0.769,5.106c1.726-0.003,3.445-0.263,5.108-0.769L61.29,7.407
		c0.817,1.531,1.848,2.931,3.068,4.153c1.218-1.222,2.25-2.622,3.068-4.153c1.661,0.503,3.379,0.766,5.106,0.766
		c-0.003-1.724-0.263-3.443-0.768-5.106C73.297,2.25,74.698,1.22,75.919,0h-0.001h-2.41l0,0c-1.185,0.879-2.475,1.62-3.84,2.201
		c0.554,1.376,0.944,2.81,1.158,4.268c-1.46-0.215-2.893-0.606-4.27-1.16c-0.582,1.363-1.319,2.656-2.198,3.838
		c-0.882-1.183-1.62-2.475-2.202-3.835l0.001-0.003c-1.375,0.554-2.811,0.944-4.267,1.157c0.213-1.455,0.603-2.893,1.154-4.267
		c-1.361-0.583-2.652-1.322-3.832-2.2h0.001h-2.414c1.222,1.218,2.622,2.25,4.156,3.067H56.952z"></path>
	<path d="M62.885,0.608c-0.005,0.007-0.008,0.009-0.01,0.014c-0.46,0.694-0.868,1.397-1.243,2.104
		c0.707-0.378,1.407-0.787,2.102-1.241c0.004-0.004,0.01-0.012,0.015-0.012c0,0.008,0,0.015,0.001,0.02
		c0.166,0.812,0.373,1.599,0.608,2.366c0.234-0.767,0.438-1.554,0.606-2.366c0.003-0.005,0.003-0.012,0.003-0.02
		c0.009,0,0.012,0.008,0.016,0.012c0.694,0.455,1.397,0.869,2.106,1.241c-0.378-0.707-0.787-1.41-1.248-2.104
		c-0.001,0-0.005-0.007-0.011-0.014c0.009,0,0.014,0,0.018,0C66.664,0.44,67.45,0.236,68.212,0h-7.708
		c0.763,0.236,1.551,0.44,2.363,0.608C62.871,0.608,62.876,0.608,62.885,0.608z"></path>
	<path d="M13.804,33.324h-0.002l0.002,0.003c-0.224,1.136,0.025,2.375,0.907,3.362c0.232,0.262,0.484,0.474,0.748,0.635
		c0.072-0.302,0.101-0.629,0.079-0.979C15.466,35.025,14.765,33.973,13.804,33.324z M14.339,34.618
		c0.429,0.517,0.707,1.17,0.781,1.884C14.665,35.947,14.402,35.287,14.339,34.618z"></path>
	<path d="M0.238,18.11c1.17,1.536,1.809,3.433,1.49,5.393c-0.261,1.621-0.87,3.06-1.728,4.291v2.859
		C3.186,26.746,3.48,21.119,0.238,18.11z"></path>
	<path d="M7.486,27.937C9.312,21.323,6.449,12.72,0,9.555v2.485c0.458,0.28,0.902,0.594,1.318,0.95
		c5.3,4.533,5.625,12.276,3.007,18.325C3.247,33.795,1.771,36.025,0,37.964v2.722C3.833,37.074,6.187,32.634,7.486,27.937z"></path>
	<path d="M33.323,13.804l0.001,0.001c0.647,0.958,1.699,1.661,3.021,1.734c0.349,0.02,0.677-0.007,0.978-0.079
		c-0.162-0.265-0.373-0.515-0.635-0.748C35.7,13.831,34.462,13.582,33.323,13.804z M34.618,14.341
		c0.667,0.064,1.327,0.324,1.882,0.779C35.787,15.047,35.136,14.766,34.618,14.341z"></path>
	<path d="M12.975,12.637c1.913,0.259,3.704,1.149,4.865,2.76c0.962,1.331,1.549,2.779,1.813,4.257
		c-1.479-0.266-2.927-0.849-4.256-1.811c-1.613-1.163-2.502-2.953-2.762-4.867c-0.164,4.42,4.025,8.191,9.041,8.702
		C21.165,16.661,17.394,12.474,12.975,12.637z"></path>
	<path d="M6.756,6.758c-2.325,6.796,1.736,14.904,7.703,18.29c4.241,2.403,9.044,3.879,14.31,3.722
		c0.156-5.265-1.318-10.067-3.722-14.308C21.662,8.493,13.554,4.433,6.756,6.758z M26.844,26.847
		c-2.623-0.12-5.244-0.652-7.76-1.645C12.957,22.778,7.712,17.07,8.254,10.118c0.042-0.546,0.133-1.083,0.26-1.605
		c0.522-0.126,1.058-0.217,1.604-0.257c6.952-0.542,12.658,4.704,15.081,10.829C26.194,21.6,26.725,24.222,26.844,26.847z"></path>
	<path d="M23.503,1.73c-1.963,0.316-3.857-0.32-5.393-1.49c3.009,3.241,8.636,2.945,12.543-0.238
		C30.652,0.001,30.652,0,30.652,0h-2.86c0,0,0.001,0.001,0.002,0.001C26.561,0.858,25.122,1.47,23.503,1.73z"></path>
	<path d="M27.935,7.487c4.699-1.299,9.139-3.653,12.751-7.486C40.685,0.001,40.685,0,40.685,0h-2.722l0.001,0.001
		c-1.94,1.77-4.169,3.247-6.651,4.324C25.268,6.944,17.522,6.617,12.99,1.319C12.634,0.902,12.32,0.458,12.038,0l0,0H9.555l0,0
		C12.719,6.451,21.322,9.311,27.935,7.487z"></path>
	<path d="M10.493,30.253c-0.016,0.215-0.037,0.428-0.047,0.642c-0.132,2.889,0.841,6.372,3.284,8.165
		c0.94,0.69,1.934,1.026,2.899,1.091c0.638-0.727,1.101-1.669,1.279-2.818c0.461-2.999-1.314-6.15-3.451-8.099
		c-0.159-0.147-0.325-0.281-0.487-0.42c5.242,2.996,11.318,3.955,17.202,3.234c0.255-0.032,0.505-0.077,0.759-0.115
		c0.037-0.253,0.083-0.504,0.115-0.758c0.721-5.884-0.24-11.96-3.236-17.201c0.14,0.163,0.275,0.328,0.419,0.488
		c1.951,2.135,5.101,3.91,8.099,3.447c1.152-0.175,2.092-0.64,2.818-1.278c-0.062-0.965-0.399-1.959-1.089-2.899
		c-1.791-2.444-5.276-3.416-8.166-3.285c-0.214,0.008-0.427,0.032-0.641,0.048c5.826-1.59,10.799-5.207,14.452-9.878
		c0.157-0.201,0.302-0.41,0.454-0.616V0h-2.459L42.7,0.001c-4.825,5.714-11.691,9.632-19.156,9.751
		c5.196,5.363,7.278,12.989,6.649,20.443c-7.453,0.629-15.079-1.456-20.44-6.649C9.633,31.011,5.715,37.875,0,42.7v2.458
		c0.205-0.151,0.413-0.295,0.616-0.453C5.289,41.052,8.904,36.078,10.493,30.253z M31.244,11.223c2.977,0.213,6.89,1.622,7.631,4.88
		c-2.827,1.78-6.591,0.007-8.848-1.946c-0.887-0.766-1.68-1.684-2.369-2.7C28.863,11.223,30.076,11.139,31.244,11.223z
		 M11.456,27.66c1.016,0.688,1.934,1.484,2.7,2.369c1.955,2.255,3.726,6.02,1.947,8.846c-3.259-0.742-4.668-4.657-4.88-7.63
		C11.138,30.077,11.223,28.864,11.456,27.66z"></path>
	<path d="M5.307,5.309C6.83,4.69,8.455,4.308,10.121,4.192C9.026,2.931,8.144,1.516,7.508,0.001
		C7.508,0.001,7.508,0,7.508,0H5.407L5.406,0.001c0.391,0.983,0.869,1.933,1.439,2.834C5.805,3.07,4.794,3.404,3.822,3.821
		C3.403,4.795,3.07,5.806,2.835,6.846C1.933,6.276,0.983,5.797,0,5.405v2.104c1.515,0.635,2.933,1.517,4.191,2.612
		C4.308,8.456,4.686,6.832,5.307,5.309z"></path>
	<path d="M118.453,41.526c-1.939-0.543-4.297,0.157-5.531,1.741c-1.152,1.478-1.443,3.08-1.092,4.563
		c-1.482-0.351-3.084-0.059-4.562,1.092c-1.585,1.235-2.282,3.592-1.74,5.531c0.679,2.438,3.344,3.699,5.694,2.849
		c1.169-0.426,2.048-1.35,2.441-2.529c0.816-2.469-1.601-5.643-4.191-3.996c-0.904,0.763-1.106,2.105-0.158,2.732
		c-0.014-1.435,2.437-1.634,2.65,0.082c0.228,1.821-1.64,2.855-3.046,2.456c-3.112-0.883-2.654-5.222-0.273-6.416
		c1.878-0.942,4.102-0.629,5.614,0.627c-1.256-1.513-1.569-3.737-0.628-5.615c1.195-2.381,5.535-2.839,6.417,0.272
		c0.399,1.405-0.636,3.274-2.456,3.046c-1.716-0.213-1.516-2.666-0.082-2.649c-0.627-0.95-1.969-0.746-2.733,0.157
		c-1.648,2.591,1.526,5.007,3.995,4.193c1.179-0.393,2.105-1.271,2.531-2.442C122.15,44.872,120.889,42.205,118.453,41.526z"></path>
	<path d="M118.771,78.339c-2.469-0.817-5.644,1.601-3.995,4.192c0.763,0.902,2.106,1.106,2.733,0.157
		c-1.436,0.016-1.635-2.437,0.082-2.65c1.821-0.226,2.855,1.64,2.456,3.047c-0.883,3.11-5.222,2.652-6.417,0.271
		c-0.941-1.878-0.628-4.102,0.628-5.614c-1.513,1.255-3.736,1.569-5.614,0.627c-2.381-1.195-2.839-5.533,0.273-6.417
		c1.406-0.398,3.274,0.636,3.045,2.457c-0.212,1.716-2.663,1.517-2.649,0.082c-0.95,0.626-0.746,1.969,0.157,2.733
		c2.592,1.648,5.009-1.527,4.193-3.995c-0.392-1.18-1.27-2.105-2.442-2.53c-2.35-0.849-5.014,0.411-5.693,2.847
		c-0.542,1.94,0.155,4.298,1.74,5.534c1.478,1.15,3.079,1.441,4.564,1.091c-0.352,1.484-0.061,3.084,1.091,4.564
		c1.233,1.583,3.592,2.282,5.531,1.739c2.438-0.679,3.698-3.344,2.85-5.693C120.876,79.609,119.952,78.731,118.771,78.339z"></path>
	<path d="M123.782,75.047L123.782,75.047c-2.217,0.163-4.412,0.228-6.534,0.063c-0.165-2.122-0.099-4.317,0.062-6.535
		c-1.68-1.453-3.282-2.96-4.664-4.575c1.384-1.615,2.984-3.124,4.665-4.575l-0.001-0.001c-0.161-2.217-0.226-4.413-0.062-6.533
		c2.119-0.164,4.318-0.101,6.533,0.062h0.003l0,0c1.343-1.555,2.738-3.032,4.216-4.341v-2.077c-0.741,0.502-1.473,1.056-2.19,1.696
		c-1.029,0.919-1.939,1.894-2.781,2.899c-1.31-0.115-2.641-0.16-4.018-0.082c-1.116,0.063-2.165,0.22-3.174,0.432
		c-0.211,1.008-0.37,2.057-0.433,3.175c-0.075,1.375-0.03,2.706,0.086,4.016c-1.007,0.842-1.98,1.752-2.9,2.78
		c-0.744,0.833-1.376,1.686-1.94,2.55c0.565,0.861,1.198,1.716,1.94,2.547c0.92,1.029,1.893,1.94,2.9,2.783
		c-0.117,1.309-0.161,2.639-0.086,4.016c0.063,1.116,0.223,2.165,0.433,3.174c1.008,0.212,2.057,0.368,3.174,0.432
		c1.377,0.078,2.708,0.032,4.018-0.084c0.842,1.007,1.752,1.981,2.781,2.901c0.717,0.639,1.449,1.193,2.19,1.695v-2.078
		C126.522,78.079,125.125,76.603,123.782,75.047z"></path>
	<path d="M126.157,69.313v-0.003c-1.374,0.553-2.81,0.945-4.266,1.157c0.213-1.455,0.603-2.894,1.156-4.267
		c-1.364-0.584-2.654-1.322-3.835-2.199c1.182-0.88,2.473-1.621,3.835-2.2c-0.55-1.378-0.943-2.811-1.156-4.268
		c1.456,0.213,2.892,0.603,4.266,1.156v-0.001c0.499-1.169,1.121-2.283,1.843-3.324v-2.538c-1.06,1.13-1.976,2.392-2.708,3.769
		c-1.664-0.508-3.38-0.769-5.109-0.769c0.003,1.724,0.261,3.443,0.771,5.106c-1.534,0.818-2.934,1.847-4.156,3.067
		c1.221,1.217,2.622,2.248,4.156,3.066l-0.003,0.001c-0.508,1.663-0.766,3.38-0.769,5.106c1.726-0.003,3.445-0.263,5.109-0.769
		l-0.003,0.003c0.734,1.374,1.651,2.636,2.71,3.766v-2.538C127.279,71.594,126.656,70.48,126.157,69.313z"></path>
	<polygon points="123.047,66.197 123.047,66.2 123.047,66.2 	"></polygon>
	<path d="M127.751,62.506c0,0.003-0.001,0.011-0.001,0.021c-0.005-0.004-0.011-0.011-0.02-0.011
		c-0.691-0.46-1.39-0.87-2.097-1.245c0.373,0.709,0.782,1.41,1.243,2.102c0,0.003,0.005,0.01,0.011,0.017
		c-0.011,0.001-0.016,0.001-0.018,0.001c-0.815,0.165-1.602,0.373-2.365,0.608c0.763,0.237,1.551,0.44,2.365,0.609
		c0.003,0,0.008,0,0.018,0c-0.005,0.007-0.009,0.01-0.011,0.014c-0.461,0.694-0.869,1.397-1.243,2.105
		c0.707-0.379,1.406-0.787,2.101-1.242c0.005-0.003,0.011-0.011,0.016-0.011c0,0.008,0,0.014,0.001,0.02
		c0.074,0.363,0.159,0.721,0.249,1.075v-5.138C127.91,61.785,127.825,62.142,127.751,62.506z"></path>
	<path d="M16.779,70.699c-1.17,0.425-2.048,1.35-2.442,2.53c-0.815,2.469,1.602,5.642,4.193,3.994
		c0.903-0.763,1.106-2.105,0.157-2.731c0.015,1.436-2.436,1.634-2.649-0.082c-0.228-1.821,1.64-2.855,3.046-2.456
		c3.112,0.883,2.653,5.222,0.271,6.417c-1.877,0.942-4.102,0.629-5.613-0.627c1.256,1.512,1.568,3.736,0.627,5.614
		c-1.193,2.381-5.533,2.839-6.416-0.273c-0.4-1.406,0.636-3.274,2.456-3.046c1.716,0.214,1.518,2.666,0.082,2.65
		c0.627,0.949,1.968,0.745,2.732-0.157c1.648-2.591-1.526-5.007-3.994-4.192c-1.181,0.392-2.105,1.27-2.531,2.441
		c-0.848,2.349,0.411,5.014,2.85,5.694c1.94,0.542,4.296-0.156,5.531-1.74c1.151-1.478,1.442-3.08,1.091-4.563
		c1.484,0.35,3.086,0.06,4.564-1.091c1.585-1.236,2.283-3.592,1.74-5.533C21.793,71.109,19.128,69.85,16.779,70.699z"></path>
	<path d="M20.734,48.92c-1.478-1.15-3.08-1.441-4.562-1.09c0.349-1.484,0.059-3.085-1.093-4.564
		c-1.235-1.584-3.592-2.283-5.533-1.74c-2.437,0.681-3.697,3.345-2.848,5.695c0.426,1.17,1.35,2.049,2.531,2.442
		c2.468,0.813,5.642-1.601,3.994-4.192c-0.762-0.904-2.105-1.107-2.731-0.158c1.435-0.015,1.635,2.437-0.082,2.65
		c-1.821,0.228-2.855-1.64-2.456-3.047c0.882-3.111,5.222-2.652,6.416-0.272c0.943,1.878,0.628,4.102-0.627,5.615
		c1.511-1.256,3.736-1.571,5.613-0.627c2.382,1.194,2.841,5.534-0.271,6.416c-1.406,0.399-3.274-0.635-3.046-2.456
		c0.213-1.715,2.665-1.517,2.649-0.081c0.949-0.627,0.746-1.97-0.157-2.733c-2.591-1.647-5.007,1.525-4.191,3.996
		c0.393,1.179,1.27,2.104,2.441,2.53c2.348,0.848,5.015-0.412,5.694-2.85C23.017,52.512,22.318,50.156,20.734,48.92z"></path>
	<path d="M2.908,79.77c1.029-0.92,1.937-1.894,2.781-2.901c1.31,0.116,2.639,0.163,4.017,0.084
		c1.114-0.064,2.165-0.22,3.174-0.432c0.211-1.008,0.369-2.057,0.43-3.174c0.078-1.378,0.032-2.707-0.083-4.016
		c1.007-0.844,1.981-1.755,2.899-2.783c0.744-0.831,1.376-1.686,1.94-2.548c-0.564-0.863-1.195-1.716-1.94-2.55
		c-0.918-1.028-1.892-1.938-2.899-2.78c0.115-1.31,0.162-2.641,0.081-4.019c-0.06-1.115-0.217-2.164-0.429-3.172
		c-1.01-0.212-2.06-0.369-3.174-0.432c-1.378-0.077-2.707-0.032-4.017,0.083c-0.844-1.005-1.752-1.979-2.783-2.899
		c-0.833-0.742-1.686-1.374-2.549-1.938C0.238,46.371,0.119,46.454,0,46.535v2.077c0.12-0.107,0.237-0.22,0.358-0.324
		c1.616,1.385,3.124,2.983,4.576,4.664h0.002c2.215-0.161,4.41-0.226,6.534-0.062c0.163,2.121,0.099,4.317-0.063,6.533l-0.001,0.001
		c1.681,1.451,3.282,2.96,4.663,4.575c-1.381,1.615-2.982,3.124-4.662,4.578l-0.001-0.003c0.163,2.217,0.228,4.412,0.064,6.535
		c-2.123,0.165-4.32,0.1-6.536-0.063c-1.452,1.682-2.96,3.28-4.576,4.663C0.237,79.606,0.12,79.493,0,79.387v2.078
		c0.119,0.081,0.238,0.164,0.358,0.242C1.22,81.144,2.074,80.512,2.908,79.77z"></path>
	<path d="M3.425,71.407c1.661,0.504,3.379,0.766,5.107,0.766c-0.004-1.724-0.264-3.443-0.769-5.107
		c1.534-0.818,2.933-1.847,4.154-3.066c-1.221-1.218-2.621-2.25-4.154-3.067c0.505-1.663,0.769-3.378,0.769-5.108
		c-1.726,0.005-3.446,0.265-5.107,0.771c-0.817-1.534-1.848-2.933-3.067-4.156C0.234,52.565,0.12,52.699,0,52.827v2.538
		c0.118-0.172,0.234-0.346,0.358-0.513c0.878,1.182,1.62,2.475,2.198,3.838c1.376-0.553,2.809-0.944,4.269-1.159
		c-0.215,1.459-0.604,2.894-1.159,4.27c1.366,0.582,2.656,1.32,3.84,2.199c-1.185,0.878-2.475,1.62-3.84,2.2
		c0.555,1.376,0.945,2.81,1.159,4.269c-1.459-0.215-2.893-0.606-4.269-1.16c-0.582,1.363-1.32,2.656-2.198,3.838
		C0.234,72.981,0.118,72.806,0,72.635v2.538c0.12,0.128,0.234,0.262,0.358,0.387C1.577,74.337,2.609,72.938,3.425,71.407z"></path>
	<path d="M0.965,65.492c0.002-0.005,0.002-0.011,0.002-0.019c0.009,0,0.011,0.008,0.015,0.011
		c0.695,0.455,1.397,0.869,2.106,1.242c-0.377-0.708-0.787-1.41-1.247-2.105c-0.003,0-0.007-0.007-0.011-0.014
		c0.009,0,0.015,0,0.018,0c0.815-0.168,1.603-0.372,2.365-0.609c-0.762-0.236-1.55-0.44-2.365-0.608c-0.004,0-0.01,0-0.018,0
		c0.004-0.008,0.011-0.015,0.011-0.018c0.459-0.69,0.869-1.393,1.242-2.102c-0.705,0.376-1.406,0.788-2.102,1.246
		c-0.004,0-0.01,0.004-0.015,0.011c0-0.011,0-0.018-0.002-0.021c-0.166-0.813-0.372-1.601-0.606-2.363
		C0.229,60.564,0.111,60.994,0,61.431v5.138c0.111,0.436,0.229,0.868,0.359,1.29C0.592,67.092,0.796,66.304,0.965,65.492z"></path>
	<path d="M84.735,112.92c-1.479-1.15-3.08-1.441-4.564-1.091c0.35-1.484,0.059-3.085-1.091-4.564
		c-1.235-1.584-3.592-2.282-5.533-1.739c-2.437,0.68-3.698,3.345-2.849,5.695c0.425,1.17,1.351,2.048,2.531,2.441
		c2.467,0.814,5.642-1.601,3.994-4.192c-0.762-0.904-2.105-1.107-2.731-0.158c1.435-0.016,1.635,2.437-0.082,2.65
		c-1.822,0.227-2.856-1.64-2.458-3.047c0.883-3.11,5.223-2.652,6.416-0.271c0.944,1.877,0.629,4.102-0.625,5.615
		c1.511-1.257,3.736-1.571,5.613-0.627c2.381,1.193,2.841,5.534-0.272,6.416c-1.406,0.399-3.274-0.636-3.045-2.456
		c0.212-1.716,2.664-1.518,2.649-0.082c0.949-0.627,0.746-1.97-0.158-2.733c-2.591-1.647-5.006,1.526-4.19,3.996
		c0.392,1.18,1.269,2.104,2.44,2.53c2.348,0.848,5.014-0.411,5.693-2.849C87.017,116.512,86.318,114.155,84.735,112.92z"></path>
	<path d="M54.452,105.526c-1.939-0.543-4.297,0.156-5.531,1.739c-1.151,1.479-1.443,3.08-1.091,4.564
		c-1.484-0.35-3.085-0.059-4.564,1.092c-1.584,1.235-2.283,3.592-1.74,5.531c0.679,2.439,3.345,3.698,5.694,2.85
		c1.17-0.426,2.049-1.35,2.441-2.53c0.815-2.469-1.601-5.643-4.192-3.996c-0.904,0.763-1.106,2.106-0.158,2.733
		c-0.014-1.436,2.437-1.635,2.65,0.082c0.228,1.821-1.64,2.855-3.046,2.456c-3.112-0.883-2.652-5.223-0.272-6.416
		c1.878-0.943,4.103-0.629,5.614,0.627c-1.255-1.513-1.568-3.737-0.627-5.614c1.194-2.381,5.534-2.84,6.416,0.272
		c0.4,1.405-0.636,3.274-2.456,3.047c-1.716-0.213-1.516-2.666-0.082-2.649c-0.627-0.95-1.969-0.747-2.731,0.156
		c-1.649,2.592,1.526,5.007,3.994,4.193c1.18-0.393,2.104-1.271,2.531-2.442C58.149,108.871,56.889,106.206,54.452,105.526z"></path>
	<path d="M77.228,122.67c0.116-1.311,0.162-2.642,0.082-4.019c-0.059-1.115-0.217-2.164-0.429-3.172
		c-1.01-0.212-2.059-0.369-3.174-0.433c-1.377-0.076-2.708-0.032-4.016,0.084c-0.844-1.006-1.753-1.979-2.784-2.899
		c-0.832-0.743-1.685-1.374-2.548-1.938c-0.865,0.563-1.716,1.195-2.548,1.938c-1.029,0.919-1.94,1.893-2.784,2.899
		c-1.308-0.116-2.639-0.16-4.016-0.082c-1.116,0.063-2.165,0.22-3.172,0.432c-0.212,1.008-0.371,2.057-0.433,3.174
		c-0.076,1.376-0.032,2.706,0.084,4.017c-1.006,0.842-1.98,1.752-2.9,2.78c-0.742,0.833-1.375,1.686-1.939,2.55h1.997
		c1.383-1.616,2.983-3.124,4.664-4.575v-0.001c-0.162-2.217-0.226-4.413-0.062-6.533c2.118-0.165,4.317-0.101,6.532,0.061h0.002
		h0.002c1.45-1.682,2.959-3.282,4.574-4.664c1.616,1.384,3.124,2.982,4.576,4.664h0.001c2.214-0.161,4.411-0.226,6.534-0.062
		c0.163,2.122,0.099,4.318-0.063,6.534l-0.001,0.002c1.681,1.45,3.28,2.959,4.662,4.574h1.998c-0.563-0.863-1.195-1.717-1.939-2.55
		C79.21,124.422,78.236,123.513,77.228,122.67z"></path>
	<path d="M72.532,119.825c-1.726,0.003-3.445,0.264-5.106,0.771c-0.818-1.534-1.848-2.934-3.068-4.156
		c-1.22,1.222-2.252,2.622-3.067,4.156c-1.663-0.508-3.38-0.769-5.107-0.769c0.002,1.723,0.26,3.444,0.771,5.106
		c-1.534,0.818-2.934,1.847-4.156,3.067h2.414c1.181-0.879,2.473-1.62,3.833-2.198c-0.55-1.377-0.942-2.812-1.156-4.269
		c1.456,0.213,2.892,0.604,4.267,1.157l-0.001-0.001c0.582-1.362,1.32-2.655,2.202-3.837c0.879,1.182,1.62,2.475,2.198,3.838
		c1.377-0.552,2.81-0.944,4.27-1.159c-0.214,1.46-0.604,2.894-1.158,4.271c1.364,0.581,2.655,1.32,3.84,2.199h2.41
		c-1.222-1.218-2.621-2.25-4.153-3.067C72.269,123.27,72.532,121.554,72.532,119.825z"></path>
	<path d="M68.215,127.999c-0.762-0.236-1.549-0.44-2.365-0.608c-0.004,0-0.009,0-0.018,0
		c0.005-0.008,0.011-0.016,0.011-0.018c0.461-0.69,0.87-1.393,1.243-2.102c-0.704,0.376-1.407,0.788-2.102,1.246
		c-0.003,0-0.009,0.005-0.014,0.011c0-0.011,0-0.018-0.001-0.021c-0.167-0.813-0.373-1.601-0.608-2.363
		c-0.235,0.762-0.442,1.549-0.608,2.363c0,0.003-0.001,0.011-0.001,0.021c-0.005-0.003-0.011-0.011-0.02-0.011
		c-0.69-0.461-1.39-0.869-2.097-1.246c0.373,0.709,0.783,1.411,1.243,2.102c0.001,0.003,0.005,0.011,0.011,0.018
		c-0.009,0-0.014,0-0.018,0c-0.814,0.164-1.602,0.372-2.365,0.608c0.001,0,0.002,0,0.003,0.001h7.708
		C68.212,127.999,68.215,127.999,68.215,127.999z"></path>
	<path d="M28.753,39.57c-0.784-0.242-1.594-0.453-2.433-0.626c-0.004,0-0.009,0-0.018-0.001
		c0.004-0.007,0.011-0.015,0.011-0.017c0.473-0.711,0.894-1.434,1.278-2.163c-0.725,0.387-1.448,0.811-2.163,1.281
		c-0.004,0-0.009,0.005-0.015,0.011c0-0.011,0-0.019-0.001-0.022c-0.171-0.837-0.384-1.647-0.625-2.432
		c-0.242,0.785-0.455,1.595-0.626,2.432c0,0.003-0.001,0.011-0.001,0.021c-0.006-0.003-0.011-0.011-0.02-0.011
		c-0.711-0.475-1.43-0.894-2.157-1.281c0.383,0.729,0.804,1.452,1.278,2.163c0.001,0.003,0.005,0.011,0.011,0.018
		c-0.009,0.001-0.015,0-0.019-0.001c-0.837,0.17-1.647,0.384-2.433,0.627c0.786,0.243,1.597,0.453,2.433,0.626
		c0.005,0,0.01,0,0.019,0c-0.005,0.007-0.009,0.011-0.011,0.015c-0.473,0.714-0.893,1.437-1.278,2.165
		c0.727-0.39,1.447-0.81,2.162-1.277c0.005-0.004,0.01-0.012,0.016-0.012c0,0.008-0.001,0.016,0.001,0.02
		c0.171,0.836,0.384,1.645,0.626,2.435c0.241-0.789,0.451-1.599,0.624-2.435c0.002-0.004,0.002-0.012,0.002-0.02
		c0.009,0,0.011,0.008,0.015,0.012c0.715,0.468,1.437,0.894,2.168,1.277c-0.389-0.728-0.811-1.451-1.283-2.165
		c-0.001,0-0.006-0.008-0.011-0.015c0.009,0,0.015,0,0.018,0C27.159,40.024,27.97,39.814,28.753,39.57z M25.62,39.922
		c0.258,0.39,0.489,0.786,0.702,1.184c-0.399-0.21-0.794-0.442-1.185-0.699c-0.002-0.003-0.003-0.007-0.009-0.007
		c0.001,0.004,0,0.009,0,0.012c-0.095,0.457-0.21,0.899-0.342,1.331c-0.132-0.431-0.249-0.874-0.342-1.331
		c-0.001-0.003-0.001-0.007-0.001-0.011c-0.003-0.001-0.006,0.003-0.009,0.005c-0.39,0.257-0.785,0.486-1.181,0.699
		c0.211-0.399,0.44-0.794,0.699-1.185c0.001-0.001,0.003-0.003,0.006-0.007c-0.005,0-0.008,0-0.011,0
		c-0.458-0.095-0.9-0.21-1.331-0.343c0.431-0.133,0.873-0.25,1.331-0.343c0.001,0,0.005,0,0.011,0.001
		c-0.003-0.004-0.005-0.009-0.007-0.009c-0.258-0.39-0.489-0.784-0.699-1.183c0.398,0.211,0.792,0.441,1.18,0.701
		c0.005,0,0.009,0.004,0.011,0.005c0-0.006,0.001-0.011,0.001-0.012c0.093-0.457,0.209-0.9,0.342-1.329
		c0.132,0.429,0.248,0.873,0.342,1.329c0.001,0.001,0.001,0.006,0.001,0.012c0.003-0.003,0.007-0.006,0.009-0.006
		c0.391-0.257,0.786-0.489,1.182-0.7c-0.209,0.398-0.44,0.794-0.699,1.181c0,0.003-0.003,0.006-0.005,0.01
		c0.005,0.001,0.008,0,0.011,0c0.458,0.095,0.902,0.21,1.33,0.343c-0.429,0.133-0.872,0.247-1.33,0.343c-0.003,0-0.006,0-0.011,0
		C25.617,39.918,25.62,39.922,25.62,39.922z"></path>
	<path d="M43.538,24.786c-0.784-0.242-1.594-0.453-2.433-0.626c-0.005,0-0.011,0-0.02,0
		c0.005-0.008,0.011-0.015,0.011-0.018c0.473-0.711,0.894-1.433,1.278-2.162c-0.725,0.386-1.448,0.81-2.163,1.281
		c-0.004,0-0.01,0.005-0.015,0.011c0-0.011,0-0.018-0.001-0.021c-0.171-0.837-0.384-1.647-0.625-2.431
		c-0.242,0.784-0.455,1.595-0.626,2.431c0,0.003-0.001,0.011-0.001,0.021c-0.005-0.003-0.012-0.011-0.021-0.011
		c-0.71-0.474-1.43-0.894-2.157-1.281c0.384,0.73,0.806,1.451,1.278,2.162c0.002,0.003,0.007,0.011,0.011,0.018
		c-0.009,0-0.015,0-0.019,0c-0.837,0.169-1.647,0.384-2.433,0.627c0.785,0.244,1.596,0.453,2.433,0.627c0.004,0,0.011,0,0.019,0
		c-0.005,0.007-0.009,0.011-0.011,0.014c-0.472,0.714-0.892,1.437-1.278,2.165c0.728-0.39,1.448-0.81,2.163-1.278
		c0.004-0.004,0.011-0.012,0.016-0.012c0,0.009-0.001,0.015,0.001,0.02c0.171,0.835,0.383,1.646,0.625,2.434
		c0.241-0.788,0.451-1.599,0.624-2.435c0.003-0.004,0.003-0.011,0.003-0.019c0.009,0,0.011,0.008,0.015,0.011
		c0.715,0.468,1.438,0.894,2.167,1.278c-0.388-0.728-0.811-1.451-1.283-2.165c-0.002-0.001-0.006-0.008-0.011-0.015
		c0.009,0,0.015,0,0.018,0C41.944,25.239,42.754,25.03,43.538,24.786z M40.405,25.138c0.258,0.39,0.488,0.786,0.701,1.183
		c-0.398-0.209-0.794-0.442-1.185-0.698c-0.002-0.002-0.003-0.005-0.008-0.006c0,0.004,0,0.008-0.001,0.011
		c-0.095,0.457-0.209,0.899-0.341,1.331c-0.132-0.431-0.249-0.875-0.342-1.331c-0.002-0.002-0.001-0.005-0.001-0.011
		c-0.003,0-0.006,0.004-0.009,0.006c-0.391,0.257-0.784,0.485-1.182,0.699c0.211-0.398,0.44-0.794,0.699-1.183
		c0.001-0.003,0.003-0.005,0.006-0.009c-0.005,0-0.008,0-0.011,0c-0.457-0.095-0.901-0.211-1.331-0.343
		c0.43-0.132,0.873-0.249,1.33-0.342c0.003-0.001,0.006-0.001,0.012-0.001c-0.004-0.004-0.006-0.008-0.007-0.01
		c-0.259-0.388-0.489-0.784-0.698-1.183c0.398,0.211,0.791,0.442,1.179,0.701c0.005,0,0.008,0.004,0.011,0.006
		c-0.001-0.006,0.001-0.01,0.001-0.012c0.093-0.457,0.21-0.9,0.342-1.33c0.132,0.43,0.249,0.872,0.341,1.33
		c0.001,0.002,0.001,0.006,0.001,0.012c0.003-0.004,0.006-0.006,0.008-0.006c0.392-0.257,0.787-0.488,1.183-0.7
		c-0.209,0.398-0.44,0.794-0.698,1.182c0,0.001-0.004,0.006-0.007,0.01c0.005,0,0.008,0,0.011,0c0.46,0.095,0.902,0.21,1.331,0.343
		c-0.429,0.132-0.871,0.247-1.331,0.342c-0.002,0-0.005,0-0.011,0C40.402,25.134,40.404,25.138,40.405,25.138z"></path>
	<path d="M92.754,103.569c-0.785-0.241-1.594-0.452-2.433-0.625c-0.005,0-0.011,0-0.02,0
		c0.005-0.008,0.012-0.015,0.011-0.018c0.474-0.71,0.895-1.433,1.278-2.162c-0.724,0.387-1.447,0.81-2.161,1.281
		c-0.005,0-0.011,0.005-0.016,0.012c0-0.012,0-0.019-0.001-0.022c-0.171-0.837-0.384-1.647-0.625-2.431
		c-0.242,0.784-0.454,1.595-0.625,2.431c0,0.003-0.003,0.011-0.001,0.021c-0.005-0.003-0.012-0.011-0.02-0.011
		c-0.711-0.474-1.431-0.894-2.159-1.281c0.384,0.73,0.806,1.452,1.278,2.162c0.001,0.003,0.006,0.011,0.011,0.018
		c-0.009,0-0.015,0-0.018,0c-0.837,0.17-1.648,0.384-2.434,0.627c0.786,0.243,1.598,0.453,2.434,0.627c0.004,0,0.011,0,0.02,0
		c-0.005,0.007-0.011,0.011-0.012,0.015c-0.473,0.714-0.893,1.437-1.278,2.165c0.728-0.39,1.448-0.809,2.163-1.278
		c0.004-0.003,0.009-0.011,0.016-0.011c-0.001,0.008-0.001,0.015,0.001,0.018c0.171,0.837,0.383,1.647,0.625,2.437
		c0.241-0.79,0.451-1.601,0.624-2.437c0.003-0.003,0.003-0.011,0.001-0.019c0.011,0.001,0.012,0.008,0.017,0.012
		c0.715,0.469,1.437,0.894,2.167,1.277c-0.388-0.728-0.81-1.451-1.284-2.165c-0.001,0-0.005-0.007-0.009-0.015
		c0.008,0,0.014,0,0.018,0C91.16,104.024,91.969,103.814,92.754,103.569z M89.621,103.922c0.258,0.39,0.488,0.786,0.702,1.184
		c-0.4-0.209-0.795-0.442-1.186-0.698c-0.003-0.003-0.003-0.007-0.008-0.007c0,0.005,0,0.008-0.001,0.011
		c-0.095,0.457-0.209,0.9-0.341,1.332c-0.133-0.432-0.249-0.875-0.341-1.331c-0.003-0.004-0.001-0.007-0.003-0.012
		c-0.003,0-0.007,0.004-0.008,0.007c-0.391,0.256-0.784,0.486-1.182,0.698c0.211-0.398,0.44-0.793,0.699-1.184
		c0.001-0.001,0.004-0.004,0.007-0.008c-0.005,0-0.009,0-0.012,0c-0.457-0.095-0.899-0.21-1.329-0.342
		c0.429-0.133,0.873-0.25,1.331-0.342c0,0,0.005-0.001,0.011,0c-0.004-0.004-0.005-0.008-0.007-0.01
		c-0.258-0.389-0.491-0.784-0.699-1.183c0.398,0.212,0.791,0.442,1.179,0.7c0.004,0,0.008,0.004,0.011,0.007
		c0-0.007,0.003-0.011,0.003-0.013c0.092-0.457,0.208-0.9,0.341-1.329c0.132,0.429,0.247,0.871,0.342,1.329c0,0.001,0,0.005,0,0.012
		c0.003-0.003,0.005-0.007,0.008-0.007c0.391-0.257,0.786-0.488,1.182-0.7c-0.209,0.399-0.438,0.794-0.698,1.183
		c0,0.001-0.003,0.005-0.007,0.01c0.005,0,0.008-0.001,0.011-0.001c0.458,0.095,0.902,0.21,1.331,0.343
		c-0.429,0.132-0.873,0.247-1.331,0.342c-0.001,0-0.005,0-0.011,0C89.618,103.918,89.619,103.922,89.621,103.922z"></path>
	<path d="M107.539,88.785c-0.785-0.242-1.595-0.453-2.433-0.626c-0.005,0.001-0.011,0.001-0.021,0
		c0.005-0.007,0.012-0.015,0.012-0.018c0.472-0.71,0.894-1.433,1.278-2.162c-0.725,0.387-1.448,0.811-2.163,1.281
		c-0.004,0-0.009,0.005-0.014,0.011c0-0.011,0-0.018-0.003-0.022c-0.171-0.836-0.383-1.646-0.624-2.43
		c-0.242,0.784-0.455,1.594-0.625,2.431c-0.001,0.003-0.001,0.01-0.001,0.021c-0.005-0.003-0.012-0.011-0.021-0.011
		c-0.711-0.475-1.431-0.895-2.157-1.282c0.383,0.729,0.804,1.452,1.278,2.163c0.003,0.003,0.005,0.011,0.011,0.018
		c-0.009,0.001-0.016,0.001-0.018,0c-0.837,0.169-1.648,0.384-2.434,0.626c0.786,0.244,1.597,0.454,2.434,0.627
		c0.004-0.001,0.011,0,0.018-0.001c-0.005,0.008-0.008,0.011-0.011,0.015c-0.474,0.714-0.892,1.437-1.278,2.165
		c0.727-0.389,1.447-0.81,2.163-1.278c0.004-0.003,0.009-0.011,0.016-0.011c-0.001,0.008-0.001,0.016,0.001,0.02
		c0.17,0.835,0.383,1.646,0.625,2.435c0.241-0.789,0.45-1.6,0.624-2.435c0.003-0.004,0.003-0.012,0.001-0.02
		c0.011,0,0.012,0.008,0.016,0.011c0.715,0.468,1.439,0.894,2.168,1.278c-0.39-0.729-0.811-1.451-1.283-2.165
		c-0.001-0.001-0.007-0.008-0.011-0.016c0.008,0.001,0.015,0,0.018,0.001C105.945,89.239,106.754,89.029,107.539,88.785z
		 M104.406,89.138c0.257,0.39,0.488,0.786,0.7,1.183c-0.399-0.21-0.794-0.442-1.185-0.699c-0.003-0.003-0.003-0.005-0.008-0.007
		c0,0.005,0,0.009-0.001,0.012c-0.095,0.457-0.209,0.899-0.341,1.331c-0.133-0.431-0.25-0.874-0.342-1.332
		c-0.001-0.001-0.001-0.005-0.001-0.009c-0.003-0.001-0.006,0.004-0.008,0.005c-0.391,0.257-0.786,0.486-1.183,0.699
		c0.211-0.398,0.441-0.794,0.7-1.183c0-0.003,0.003-0.004,0.005-0.008c-0.005,0-0.008,0-0.011-0.001
		c-0.458-0.095-0.9-0.209-1.331-0.342c0.429-0.133,0.873-0.25,1.329-0.342c0.004-0.001,0.007-0.001,0.012-0.001
		c-0.003-0.004-0.005-0.008-0.005-0.009c-0.259-0.389-0.49-0.785-0.7-1.183c0.398,0.212,0.792,0.442,1.181,0.7
		c0.005,0,0.008,0.005,0.011,0.007c0-0.006,0.001-0.011,0.001-0.012c0.092-0.457,0.211-0.9,0.341-1.33
		c0.133,0.429,0.249,0.873,0.342,1.33c0.001,0.001,0,0.005,0.001,0.012c0.003-0.004,0.005-0.006,0.008-0.005
		c0.391-0.258,0.786-0.49,1.182-0.701c-0.208,0.398-0.44,0.794-0.699,1.183c0,0-0.004,0.005-0.007,0.009c0.005,0,0.008,0,0.012,0
		c0.459,0.095,0.902,0.211,1.331,0.343c-0.429,0.132-0.871,0.247-1.331,0.343c-0.003-0.001-0.007-0.001-0.012-0.001
		C104.402,89.133,104.403,89.137,104.406,89.138z"></path>
	<path d="M43.542,103.572c-0.788-0.241-1.599-0.452-2.435-0.624c-0.004-0.003-0.011-0.003-0.02-0.003
		c0-0.009,0.008-0.011,0.012-0.014c0.469-0.715,0.894-1.438,1.278-2.168c-0.728,0.388-1.452,0.811-2.165,1.283
		c0,0.001-0.008,0.005-0.015,0.011c0.001-0.009,0-0.015,0.001-0.019c-0.174-0.839-0.384-1.649-0.628-2.433
		c-0.242,0.784-0.452,1.593-0.625,2.433c0,0.005,0,0.01-0.001,0.019c-0.007-0.004-0.015-0.011-0.018-0.011
		c-0.711-0.473-1.433-0.895-2.163-1.278c0.387,0.725,0.811,1.447,1.282,2.163c0,0.004,0.005,0.009,0.011,0.014
		c-0.011,0-0.018,0-0.021,0.001c-0.837,0.171-1.647,0.384-2.432,0.625c0.785,0.242,1.595,0.455,2.432,0.626
		c0.003,0,0.011,0.001,0.021,0.001c-0.004,0.005-0.011,0.011-0.011,0.02c-0.474,0.71-0.895,1.43-1.282,2.157
		c0.73-0.384,1.452-0.806,2.163-1.278c0.003-0.002,0.011-0.006,0.018-0.011c0,0.009,0,0.014-0.001,0.018
		c0.17,0.837,0.385,1.648,0.627,2.434c0.242-0.786,0.453-1.597,0.626-2.434c0.001-0.004,0.001-0.01,0-0.019
		c0.007,0.005,0.011,0.01,0.015,0.011c0.713,0.473,1.438,0.892,2.165,1.278c-0.39-0.727-0.81-1.447-1.278-2.163
		c-0.004-0.004-0.012-0.01-0.012-0.015c0.008,0,0.016,0.001,0.02-0.001C41.942,104.026,42.753,103.814,43.542,103.572z
		 M40.407,103.924c0.256,0.39,0.485,0.784,0.698,1.181c-0.398-0.21-0.793-0.44-1.183-0.698c-0.002-0.001-0.005-0.003-0.008-0.006
		c0,0.005,0,0.008,0,0.011c-0.095,0.457-0.211,0.9-0.343,1.33c-0.132-0.43-0.25-0.873-0.342-1.33c0-0.002,0-0.005,0-0.011
		c-0.004,0.003-0.008,0.005-0.009,0.006c-0.39,0.259-0.783,0.49-1.183,0.699c0.212-0.398,0.442-0.792,0.701-1.18
		c0-0.005,0.004-0.008,0.006-0.011c-0.006,0-0.011-0.001-0.013-0.001c-0.457-0.094-0.9-0.209-1.329-0.342
		c0.43-0.132,0.872-0.248,1.329-0.342c0.002-0.001,0.007-0.001,0.013-0.001c-0.003-0.003-0.006-0.006-0.006-0.008
		c-0.258-0.391-0.489-0.786-0.701-1.183c0.4,0.21,0.794,0.44,1.183,0.699c0.001,0,0.005,0.003,0.009,0.006c0-0.005,0-0.008,0-0.011
		c0.095-0.458,0.211-0.902,0.343-1.331c0.132,0.429,0.247,0.873,0.343,1.331c0,0.002,0,0.005,0,0.011
		c0.003-0.003,0.008-0.005,0.008-0.005c0.39-0.259,0.786-0.49,1.183-0.702c-0.209,0.4-0.442,0.794-0.698,1.185
		c-0.003,0.002-0.007,0.003-0.007,0.008c0.005-0.001,0.008,0,0.011,0.001c0.457,0.095,0.9,0.209,1.331,0.342
		c-0.43,0.132-0.874,0.248-1.331,0.342c-0.003,0.001-0.006,0.001-0.011,0.001C40.4,103.918,40.405,103.92,40.407,103.924z"></path>
	<path d="M28.758,88.786c-0.79-0.24-1.601-0.45-2.436-0.624c-0.003-0.001-0.011-0.002-0.019-0.001
		c0-0.01,0.008-0.012,0.011-0.016c0.469-0.715,0.895-1.437,1.278-2.167c-0.727,0.389-1.451,0.81-2.164,1.283
		c-0.001,0.003-0.008,0.007-0.016,0.011c0.001-0.009,0-0.015,0.001-0.018c-0.174-0.84-0.384-1.65-0.627-2.433
		c-0.242,0.783-0.453,1.593-0.627,2.433c0.001,0.005,0.001,0.011,0,0.019c-0.007-0.005-0.015-0.011-0.018-0.011
		c-0.71-0.473-1.432-0.894-2.161-1.278c0.386,0.725,0.811,1.448,1.281,2.163c0,0.004,0.005,0.01,0.011,0.015
		c-0.011,0.001-0.018,0.001-0.022,0.002c-0.836,0.171-1.647,0.383-2.431,0.624c0.784,0.242,1.595,0.455,2.431,0.626
		c0.003,0,0.011,0.001,0.022,0.002c-0.003,0.005-0.011,0.011-0.011,0.02c-0.474,0.711-0.894,1.431-1.281,2.158
		c0.729-0.384,1.452-0.806,2.162-1.278c0.003-0.002,0.011-0.006,0.018-0.011c0.001,0.009,0.001,0.016,0,0.02
		c0.17,0.836,0.384,1.647,0.627,2.432c0.244-0.786,0.454-1.597,0.627-2.434c0-0.004,0-0.009,0-0.018
		c0.008,0.005,0.011,0.009,0.014,0.011c0.715,0.473,1.437,0.893,2.165,1.278c-0.39-0.727-0.809-1.447-1.277-2.162
		c-0.003-0.005-0.011-0.01-0.011-0.016c0.008,0.001,0.016,0.001,0.02-0.001C27.157,89.242,27.968,89.029,28.758,88.786z
		 M25.623,89.139c0.257,0.391,0.486,0.785,0.699,1.182c-0.399-0.211-0.794-0.441-1.183-0.699c-0.003-0.001-0.005-0.003-0.009-0.007
		c0,0.005,0,0.009,0,0.011c-0.095,0.458-0.209,0.901-0.342,1.331c-0.132-0.43-0.25-0.873-0.342-1.33
		c-0.001-0.003-0.001-0.007-0.001-0.012c-0.004,0.004-0.009,0.005-0.01,0.007c-0.389,0.258-0.785,0.489-1.183,0.699
		c0.212-0.397,0.441-0.791,0.701-1.18c0-0.005,0.005-0.009,0.006-0.011c-0.006,0.001-0.011-0.001-0.012-0.001
		c-0.457-0.093-0.9-0.21-1.329-0.342c0.429-0.131,0.873-0.248,1.329-0.342c0.001-0.001,0.006-0.001,0.011-0.001
		c-0.003-0.003-0.005-0.006-0.005-0.008c-0.257-0.391-0.489-0.787-0.701-1.183c0.398,0.209,0.794,0.44,1.183,0.699
		c0.001,0,0.006,0.004,0.01,0.007c0-0.007,0-0.009,0-0.011c0.095-0.459,0.21-0.902,0.342-1.331c0.133,0.429,0.247,0.871,0.343,1.331
		c0,0.001,0,0.005-0.001,0.01c0.004-0.003,0.008-0.005,0.008-0.006c0.39-0.258,0.786-0.489,1.183-0.702
		c-0.209,0.399-0.442,0.794-0.698,1.185c-0.003,0.003-0.005,0.003-0.007,0.009c0.005,0,0.009,0,0.011,0.001
		c0.457,0.095,0.9,0.209,1.332,0.342c-0.432,0.132-0.875,0.249-1.332,0.342c-0.001,0.002-0.005,0.001-0.011,0.001
		C25.616,89.133,25.62,89.137,25.623,89.139z"></path>
	<path d="M107.543,39.572c-0.79-0.241-1.599-0.452-2.437-0.624c-0.003-0.002-0.011-0.002-0.018-0.002
		c0-0.01,0.008-0.011,0.012-0.015c0.469-0.715,0.894-1.439,1.277-2.168c-0.727,0.389-1.451,0.811-2.165,1.283
		c0,0.002-0.007,0.005-0.014,0.011c0-0.009,0-0.015,0-0.018c-0.172-0.84-0.383-1.649-0.627-2.433
		c-0.242,0.784-0.453,1.593-0.625,2.433c0,0.005,0,0.011-0.001,0.019c-0.007-0.004-0.014-0.011-0.017-0.011
		c-0.711-0.472-1.434-0.895-2.163-1.279c0.387,0.725,0.811,1.449,1.281,2.163c0,0.004,0.005,0.01,0.012,0.015
		c-0.012,0-0.018,0-0.022,0.002c-0.836,0.171-1.647,0.383-2.431,0.624c0.784,0.242,1.595,0.455,2.431,0.625
		c0.004,0.001,0.011,0.002,0.022,0.002c-0.004,0.005-0.012,0.011-0.012,0.02c-0.474,0.711-0.894,1.43-1.281,2.158
		c0.729-0.384,1.452-0.806,2.163-1.279c0.003-0.001,0.011-0.005,0.018-0.011c0,0.009,0,0.014,0,0.018
		c0.168,0.837,0.383,1.648,0.625,2.434c0.244-0.786,0.454-1.597,0.627-2.433c0.001-0.005,0.001-0.011,0-0.02
		c0.008,0.005,0.011,0.01,0.014,0.011c0.715,0.473,1.437,0.894,2.165,1.279c-0.39-0.728-0.808-1.449-1.278-2.162
		c-0.003-0.005-0.011-0.011-0.011-0.016c0.008,0,0.016,0,0.018-0.001C105.943,40.026,106.753,39.814,107.543,39.572z
		 M104.407,39.924c0.257,0.39,0.486,0.784,0.699,1.181c-0.398-0.211-0.794-0.44-1.183-0.698c-0.003-0.001-0.005-0.004-0.008-0.007
		c0,0.005,0,0.008,0,0.011c-0.096,0.458-0.211,0.9-0.344,1.33c-0.132-0.429-0.25-0.872-0.342-1.33c0-0.001,0-0.005,0-0.011
		c-0.004,0.003-0.008,0.005-0.009,0.007c-0.39,0.258-0.785,0.489-1.183,0.699c0.212-0.398,0.442-0.792,0.702-1.18
		c0-0.005,0.004-0.009,0.006-0.011c-0.006,0-0.012-0.001-0.013-0.001c-0.458-0.093-0.9-0.209-1.33-0.342
		c0.429-0.132,0.871-0.248,1.33-0.342c0.003-0.001,0.005-0.001,0.012-0.001c-0.003-0.003-0.007-0.006-0.005-0.008
		c-0.258-0.391-0.49-0.786-0.702-1.182c0.399,0.209,0.794,0.44,1.183,0.699c0.001,0,0.005,0.003,0.009,0.005
		c0-0.005,0-0.008,0-0.011c0.095-0.458,0.211-0.902,0.342-1.331c0.133,0.429,0.247,0.873,0.344,1.331c0,0.003,0,0.007,0,0.011
		c0.003-0.003,0.008-0.006,0.008-0.007c0.39-0.257,0.786-0.489,1.183-0.701c-0.211,0.399-0.442,0.794-0.699,1.185
		c-0.003,0.002-0.006,0.003-0.006,0.008c0.005,0,0.009,0,0.012,0.001c0.457,0.095,0.899,0.21,1.331,0.341
		c-0.43,0.133-0.874,0.25-1.331,0.342c-0.003,0.001-0.006,0.001-0.012,0.001C104.401,39.918,104.406,39.921,104.407,39.924z"></path>
	<path d="M92.758,24.787c-0.789-0.24-1.599-0.45-2.435-0.623c-0.004-0.003-0.012-0.003-0.02-0.003
		c0-0.009,0.008-0.012,0.012-0.016c0.469-0.714,0.894-1.437,1.278-2.167c-0.728,0.388-1.451,0.81-2.164,1.283
		c-0.001,0.002-0.008,0.006-0.017,0.011c0.001-0.009,0-0.015,0.001-0.018c-0.174-0.84-0.383-1.649-0.628-2.434
		c-0.241,0.784-0.453,1.594-0.625,2.432c0,0.005,0,0.011-0.001,0.02c-0.006-0.005-0.013-0.011-0.017-0.011
		c-0.711-0.474-1.434-0.895-2.162-1.279c0.386,0.725,0.811,1.447,1.281,2.163c0,0.003,0.005,0.01,0.011,0.015
		c-0.011,0-0.018,0-0.021,0.001c-0.837,0.171-1.647,0.384-2.431,0.624c0.784,0.243,1.595,0.456,2.431,0.627
		c0.003,0,0.011,0.001,0.021,0.001c-0.003,0.005-0.011,0.011-0.011,0.02c-0.474,0.71-0.895,1.431-1.282,2.158
		c0.731-0.384,1.452-0.806,2.163-1.278c0.004-0.002,0.011-0.007,0.017-0.011c0.001,0.009,0.001,0.015,0.001,0.019
		c0.17,0.837,0.384,1.647,0.627,2.433c0.243-0.785,0.453-1.595,0.627-2.433c-0.001-0.005,0-0.011-0.001-0.02
		c0.009,0.005,0.012,0.01,0.016,0.012c0.715,0.473,1.436,0.892,2.165,1.278c-0.39-0.727-0.81-1.447-1.278-2.162
		c-0.004-0.005-0.012-0.01-0.012-0.016c0.009,0.001,0.016,0.001,0.021-0.001C91.158,25.243,91.969,25.029,92.758,24.787z
		 M89.624,25.139c0.257,0.391,0.484,0.784,0.698,1.182c-0.398-0.211-0.794-0.44-1.182-0.699c-0.003-0.001-0.005-0.003-0.009-0.007
		c0,0.005,0,0.009-0.001,0.012c-0.095,0.457-0.208,0.9-0.342,1.329c-0.132-0.429-0.249-0.872-0.341-1.329c0-0.003,0-0.005,0-0.012
		c-0.004,0.004-0.009,0.005-0.011,0.007c-0.388,0.258-0.783,0.489-1.182,0.698c0.211-0.398,0.441-0.791,0.7-1.179
		c0-0.005,0.004-0.008,0.005-0.012c-0.005,0.001-0.011,0-0.011,0c-0.458-0.093-0.9-0.211-1.331-0.342
		c0.43-0.132,0.874-0.249,1.331-0.342c0.001-0.001,0.005-0.001,0.011-0.001c-0.004-0.003-0.005-0.007-0.005-0.008
		c-0.257-0.391-0.49-0.787-0.7-1.183c0.399,0.209,0.794,0.44,1.182,0.698c0.001,0,0.007,0.004,0.011,0.007c0-0.005,0-0.008,0-0.011
		c0.094-0.459,0.209-0.902,0.341-1.331c0.133,0.429,0.247,0.871,0.344,1.331c0,0.001,0,0.005-0.001,0.011
		c0.005-0.004,0.009-0.005,0.009-0.007c0.39-0.258,0.786-0.488,1.183-0.702c-0.209,0.399-0.441,0.794-0.698,1.185
		c-0.003,0.002-0.005,0.003-0.007,0.008c0.004-0.001,0.008,0,0.011,0.001c0.457,0.095,0.899,0.21,1.332,0.342
		c-0.432,0.132-0.875,0.249-1.332,0.342c-0.001,0.001-0.005,0-0.011,0C89.617,25.134,89.621,25.137,89.624,25.139z"></path>
</g>
</g></pattern></defs><rect width="100%" height="100%" id="RctSolidBackground1" fill="url(#pattern-517-layer-1)"></rect></svg>