<svg xmlns="http://www.w3.org/2000/svg" width="256" height="256"><path fill-opacity=".016" d="M0 128.004v128.004l128.25-.254 128.25-.254.254-127.75L257.008 0H0v128.004m.485.496c0 70.4.119 99.053.265 63.672.146-35.38.146-92.98 0-128C.604 29.153.485 58.1.485 128.5" fill="#1976D2" fill-rule="evenodd"/><path fill-opacity=".199" d="M118.857 2.989c-1.644 1.644-2.692 3.469-2.329 4.057 1.804 2.919-.833 6.191-9.666 11.991C100.012 23.535 96.897 25 94.181 25c-2.969 0-4.308.767-7.641 4.375-3.546 3.841-4.942 4.579-11.42 6.042-11.749 2.652-13.767 4.146-13.29 9.833.115 1.378-.648 1.753-3.592 1.765-4.131.017-5.68.734-6.453 2.985-1.109 3.233 1.09 4.992 6.5 5.201 2.868.111-.185.448-6.785.75l-12 .549-.31 2.683C38.799 62.572 41.942 64.637 45 63c1.1-.589 2-1.505 2-2.035 0-.531 3.038-.952 6.75-.937l6.75.029 3.25 5.372C65.537 68.383 67 71.205 67 71.7c0 .494-3.173 3.542-7.052 6.773C31.667 102.03 21.427 139.966 34.702 172c3.54 8.545 7.562 15.399 12.509 21.321 2.215 2.651 4.651 6.893 5.413 9.426 1.694 5.628 7.523 16.395 11.465 21.177 2.03 2.462 2.911 4.629 2.911 7.156 0 9.731 12.3 18.123 33.154 22.62 6.555 1.414 12.638 1.785 28.346 1.729 18.219-.065 20.853-.301 29.578-2.649C177.853 247.458 188 239.392 188 228.994c0-1.582.406-3.127.902-3.433 1.92-1.187 7.99-11.43 11.295-19.061 1.905-4.4 5.862-11.15 8.792-15 6.112-8.03 12.249-20.282 14.526-29 3.956-15.145 2.721-34.576-3.109-48.923-5.536-13.624-18.658-30.629-29.357-38.043-4.591-3.182-4.603-3.839-.202-11.097l2.653-4.374 6.936-.031c5.811-.027 7.318.327 9.294 2.185 1.804 1.694 2.746 1.972 3.998 1.183 2.882-1.818 3.789-4.072 2.342-5.816-1.045-1.258-3.705-1.62-12.942-1.759-6.396-.096-9.612-.352-7.148-.568 2.465-.217 5.052-.869 5.75-1.448 3.146-2.611-.123-6.809-5.301-6.809-3.124 0-3.429-.26-3.429-2.927 0-3.94-3.656-6.669-10.811-8.071-8.36-1.639-10.632-2.747-14.528-7.087-2.907-3.238-4.166-3.915-7.28-3.915-2.842 0-5.655-1.241-11.472-5.06-9.426-6.188-11.061-7.928-11.414-12.146-.152-1.812-.325-3.62-.385-4.018C136.864 2.15 130.806 0 126.473 0c-3.804 0-5.159.532-7.616 2.989" fill="#1976D2" fill-rule="evenodd"/><path fill-opacity=".284" d="M120.25 1.989c-2.534 1.545-3.25 2.66-3.25 5.062 0 4.781-1.431 6.5-10.344 12.431C100.274 23.729 97.496 25 94.597 25c-3.071 0-4.353.665-6.932 3.593-4.006 4.549-6.651 5.91-14.469 7.448C65.495 37.556 62 40.063 62 44.073c0 2.6-.343 2.927-3.066 2.927C54.89 47 52 48.631 52 50.913c0 2.686 1.96 3.899 7.02 4.344 2.464.216-.527.472-6.648.568-8.78.138-11.404.509-12.442 1.759-2.843 3.426 2.637 7.023 6.027 3.955 1.379-1.248 3.399-1.565 8.52-1.337l6.712.298 3.156 5.695L67.5 71.89l-9.277 8.663c-14.199 13.26-20.857 23.593-25.864 40.14-2.279 7.531-2.672 10.69-2.716 21.807-.038 9.399.434 14.8 1.704 19.5 2.532 9.373 9.74 23.421 16.127 31.428 3.039 3.811 5.526 7.759 5.526 8.773 0 2.728 7.508 17.169 10.985 21.129 2.017 2.297 3.015 4.499 3.015 6.651 0 16.077 29.232 27.319 66.901 25.73 30.06-1.268 53.099-11.683 53.099-24.004 0-3.092.937-5.179 4.383-9.764 2.411-3.207 5.836-9.343 7.611-13.637 1.776-4.293 5.905-11.406 9.178-15.806 21.287-28.625 23.268-61.982 5.448-91.777-4.837-8.086-14.72-19.158-21.63-24.23-2.744-2.015-4.99-4.166-4.99-4.78 0-.613 1.445-3.5 3.211-6.414L193.423 60h7.166c5.254 0 7.51.414 8.453 1.551.716.862 2.434 1.417 3.872 1.25 2.14-.249 2.586-.819 2.586-3.301v-3l-12.5-.547c-6.875-.301-10.153-.639-7.285-.75 4.137-.161 5.445-.633 6.33-2.286 1.676-3.133-1.272-5.917-6.267-5.917-3.433 0-3.836-.241-3.29-1.962 1.395-4.396-3.582-7.914-13.488-9.534-5.868-.96-7.759-1.999-12.096-6.649-2.921-3.13-4.292-3.855-7.296-3.855-2.78 0-5.524-1.232-11.05-4.961C140.038 14.29 137 10.846 137 6.938c0-6.222-9.877-9.14-16.75-4.949m-9.154 16.826-8.404 5.685 12.154.281c6.685.154 17.667.154 24.404 0l12.25-.281-8.33-5.75-8.329-5.75-7.671.065c-7.635.065-7.708.091-16.074 5.75M88.765 30.25l-3.037 3.25 20.636.27c11.35.149 29.974.149 41.386 0l20.75-.27-3.173-3.25-3.173-3.25H91.802l-3.037 3.25M76 37.503c-11.442 2.315-13.1 3.467-11.393 7.915C65.151 46.837 71.625 47 127.49 47h62.277l.489-2.56c.667-3.489-2.071-5.118-11.7-6.961-10.489-2.007-92.614-1.988-102.556.024M96.822 55.75c16.677.154 43.677.153 60-.001s2.678-.28-30.322-.28-46.355.127-29.678.281m-32.347 4.289c-.183.297.985 2.502 2.596 4.901C68.682 67.339 70 70.133 70 71.15c0 1.778 2.21 1.85 56.921 1.85h56.92l.632-2.877c.347-1.582 1.752-4.394 3.121-6.25l2.49-3.373-22.292-.248c-54.744-.608-103.011-.707-103.317-.213" fill="#1976D2" fill-rule="evenodd"/><path fill-opacity=".937" d="M121.523 1.51c-3.725 2.011-4.488 3.205-4.508 7.053-.018 3.565-2.46 6.114-11.916 12.437-4.291 2.869-7.853 4.443-10.803 4.776-3.493.394-4.918 1.172-6.9 3.772-2.744 3.596-7.46 5.836-14.429 6.85-2.492.363-5.98 1.54-7.75 2.616C62.576 40.621 62 41.599 62 44.485 62 47.976 61.97 48 57.567 48c-3.672 0-4.551.373-5.122 2.174-.957 3.014 1.829 4.819 7.496 4.856 3.796.026 4.243.214 2.671 1.127-1.19.691-5.555.921-11.795.62-8.442-.406-10.036-.237-10.777 1.149-1.134 2.119.529 5.074 2.855 5.074.987 0 2.61-.9 3.605-2 1.449-1.601 3.08-2 8.18-2 5.667 0 6.47.248 7.285 2.25.504 1.238 1.84 3.6 2.969 5.25 3.26 4.764 2.631 6.507-4.409 12.221C47.1 89.616 36.359 106.411 31.886 123.5c-2.777 10.608-2.998 27.191-.495 37 2.514 9.849 9.484 23.857 16.036 32.232 3.065 3.917 5.573 8.022 5.573 9.122 0 2.513 5.83 13.778 10.478 20.248 1.937 2.697 3.522 5.997 3.522 7.335 0 15.393 24.84 25.949 61 25.922 34.087-.026 59-10.517 59-24.845 0-2.786.816-4.679 3.174-7.365 2.795-3.183 10.792-18.517 10.846-20.796.011-.469 2.703-4.453 5.981-8.853 10.999-14.762 15.758-26.18 17.944-43.051 2.155-16.633-2.68-36.033-12.831-51.474-5.507-8.377-15.019-18.56-21.09-22.578-4.603-3.046-5.061-5.362-1.958-9.897 1.129-1.65 2.465-4.013 2.969-5.25.83-2.041 1.586-2.25 8.126-2.25 5.942 0 7.602.368 9.439 2.094 2.89 2.715 6.4 1.804 6.4-1.661 0-1.338-.562-2.472-1.25-2.519-.687-.047-5.975-.036-11.75.026-5.775.061-11.175-.344-12-.899-1.133-.764-.523-1.017 2.5-1.039 6.801-.05 8.648-.913 8.304-3.883-.267-2.303-.847-2.679-4.804-3.119-4.242-.471-4.518-.689-4.818-3.806-.408-4.248-4.113-6.587-13.046-8.235-5.826-1.075-7.139-1.757-10.757-5.592-3.367-3.568-4.772-4.367-7.684-4.367-2.697 0-5.77-1.475-12.628-6.063C138.38 13.458 137 11.855 137 7.089c0-5.513-9.353-8.884-15.477-5.579m-9.219 16.009c-4.507 3.022-8.471 5.942-8.809 6.488-.375.608 1.64 1.05 5.196 1.14l5.809.147-6 .744c-3.3.41-8.547.794-11.661.853-5.03.097-5.95.452-8.25 3.186-1.424 1.692-2.589 3.492-2.589 4 0 .549 16.799.923 41.5.923 22.825 0 41.498-.337 41.495-.75-.003-.413-1.042-2.046-2.309-3.63-2.757-3.445-7.231-4.382-22.686-4.752l-10.5-.251 9.466-.558 9.466-.559-9.136-6.25c-9.02-6.171-9.222-6.25-15.966-6.239-6.61.011-7.094.188-15.026 5.508M72.498 37.825c-3.3.921-6.563 2.039-7.25 2.484-1.806 1.171-1.562 6.357.334 7.084.87.334 28.94.607 62.377.607 65.68 0 63.628.17 62.868-5.195-.252-1.779-1.583-2.762-5.827-4.305-5.201-1.891-8.245-2.01-56-2.175-44.532-.154-51.209.023-56.502 1.5M67.25 54.662C62.362 56.635 71.619 57 126.5 57c34.834 0 60.5-.379 60.5-.893 0-.491-.712-1.166-1.582-1.5-1.89-.725-116.366-.672-118.168.055M64 60.096c0 .602.967 2.454 2.15 4.114 1.182 1.661 2.438 4.43 2.791 6.155l.641 3.135h114.836l.646-3.158c.355-1.736 1.611-4.385 2.791-5.885C192.366 58.722 195.462 59 127 59c-44.999 0-63 .313-63 1.096m4.458 20.742c-2.732.472-14.822 12.479-19.66 19.525C42.447 109.612 36 125.748 36 132.394c0 1.463 8.157 1.606 91.5 1.606s91.5-.143 91.5-1.606c0-6.615-6.423-22.725-12.772-32.031-5.927-8.689-17.355-19.34-20.881-19.461-8.439-.291-115.236-.349-116.889-.064m-32.929 60.115c-.981 1.587 1.424 17.965 3.594 24.479 4.125 12.38 13.329 25.595 24.091 34.587 7.889 6.592 11.585 8.416 23.148 11.42 15.156 3.938 24.944 4.833 47.027 4.302 33.952-.817 45.451-4.244 60.08-17.905 15.956-14.901 25.114-32.791 25.77-50.336l.261-7-91.688-.255c-58.025-.162-91.906.098-92.283.708" fill="#1976D2" fill-rule="evenodd"/></svg>